<svg width="376" height="376" viewBox="0 0 376 376" fill="none" xmlns="http://www.w3.org/2000/svg">
<path d="M80.9375 188L72 179.062V177L83 188L72 199V196.938L80.9375 188Z" fill="#D4AF37"/>
<path d="M102.42 196C102.273 196 102.149 195.956 102.046 195.868C101.958 195.765 101.914 195.641 101.914 195.494V181.128C101.914 180.967 101.958 180.842 102.046 180.754C102.149 180.651 102.273 180.6 102.42 180.6H108.448C110.017 180.6 111.198 180.974 111.99 181.722C112.782 182.47 113.178 183.453 113.178 184.67C113.178 185.491 112.987 186.173 112.606 186.716C112.239 187.259 111.799 187.655 111.286 187.904C111.902 188.212 112.423 188.689 112.848 189.334C113.273 189.979 113.486 190.72 113.486 191.556C113.486 192.377 113.295 193.125 112.914 193.8C112.547 194.475 111.997 195.01 111.264 195.406C110.531 195.802 109.651 196 108.624 196H102.42ZM108.118 187.112C109.042 187.112 109.746 186.899 110.23 186.474C110.729 186.049 110.978 185.455 110.978 184.692C110.978 183.944 110.736 183.372 110.252 182.976C109.768 182.58 109.057 182.382 108.118 182.382H104.07V187.112H108.118ZM108.338 194.218C109.262 194.218 109.981 193.969 110.494 193.47C111.022 192.971 111.286 192.333 111.286 191.556C111.286 190.749 111.022 190.104 110.494 189.62C109.981 189.121 109.262 188.872 108.338 188.872H104.07V194.218H108.338ZM122.153 196.22C120.188 196.22 118.692 195.692 117.665 194.636C116.653 193.58 116.111 192.121 116.037 190.258C116.023 189.862 116.015 189.217 116.015 188.322C116.015 187.413 116.023 186.753 116.037 186.342C116.111 184.494 116.661 183.042 117.687 181.986C118.714 180.915 120.203 180.38 122.153 180.38C123.459 180.38 124.566 180.615 125.475 181.084C126.385 181.539 127.074 182.14 127.543 182.888C128.013 183.636 128.269 184.435 128.313 185.286V185.33C128.313 185.447 128.262 185.55 128.159 185.638C128.071 185.711 127.969 185.748 127.851 185.748H126.641C126.348 185.748 126.165 185.579 126.091 185.242C125.842 184.142 125.395 183.372 124.749 182.932C124.104 182.477 123.239 182.25 122.153 182.25C119.631 182.25 118.325 183.651 118.237 186.452C118.223 186.848 118.215 187.457 118.215 188.278C118.215 189.099 118.223 189.723 118.237 190.148C118.325 192.949 119.631 194.35 122.153 194.35C123.239 194.35 124.104 194.13 124.749 193.69C125.409 193.235 125.857 192.458 126.091 191.358C126.135 191.167 126.201 191.035 126.289 190.962C126.377 190.889 126.495 190.852 126.641 190.852H127.851C127.983 190.852 128.093 190.896 128.181 190.984C128.284 191.057 128.328 191.16 128.313 191.292C128.269 192.157 128.013 192.964 127.543 193.712C127.074 194.46 126.385 195.069 125.475 195.538C124.566 195.993 123.459 196.22 122.153 196.22ZM131.768 196C131.621 196 131.496 195.956 131.394 195.868C131.306 195.765 131.262 195.641 131.262 195.494V181.106C131.262 180.959 131.306 180.842 131.394 180.754C131.496 180.651 131.621 180.6 131.768 180.6H132.934C133.08 180.6 133.198 180.651 133.286 180.754C133.388 180.842 133.44 180.959 133.44 181.106V195.494C133.44 195.641 133.388 195.765 133.286 195.868C133.198 195.956 133.08 196 132.934 196H131.768ZM149.6 196.704C149.453 196.704 149.329 196.653 149.226 196.55C149.138 196.462 149.094 196.345 149.094 196.198V194.46C146.909 194.46 145.244 193.991 144.1 193.052C142.956 192.113 142.289 190.683 142.098 188.762C142.083 188.63 142.076 188.417 142.076 188.124C142.076 187.699 142.083 187.398 142.098 187.222C142.201 185.359 142.861 183.944 144.078 182.976C145.31 182.008 146.982 181.524 149.094 181.524V180.006C149.094 179.845 149.138 179.72 149.226 179.632C149.329 179.544 149.453 179.5 149.6 179.5H150.744C150.891 179.5 151.008 179.551 151.096 179.654C151.199 179.742 151.25 179.859 151.25 180.006V181.524C153.362 181.524 155.027 182.008 156.244 182.976C157.476 183.944 158.136 185.359 158.224 187.222C158.253 187.603 158.268 187.86 158.268 187.992C158.268 188.124 158.253 188.381 158.224 188.762C158.063 190.683 157.403 192.113 156.244 193.052C155.085 193.991 153.421 194.46 151.25 194.46V196.198C151.25 196.345 151.199 196.462 151.096 196.55C151.008 196.653 150.891 196.704 150.744 196.704H149.6ZM149.094 183.394C147.613 183.394 146.469 183.709 145.662 184.34C144.87 184.971 144.415 185.961 144.298 187.31C144.283 187.457 144.276 187.647 144.276 187.882C144.276 188.205 144.283 188.461 144.298 188.652C144.371 190.001 144.811 190.991 145.618 191.622C146.439 192.253 147.598 192.568 149.094 192.568V183.394ZM151.228 192.568C154.293 192.568 155.899 191.263 156.046 188.652C156.061 188.505 156.068 188.278 156.068 187.97C156.068 187.677 156.061 187.457 156.046 187.31C155.899 185.961 155.43 184.971 154.638 184.34C153.846 183.709 152.709 183.394 151.228 183.394V192.568ZM167.056 196.22C165.134 196.22 163.646 195.721 162.59 194.724C161.548 193.712 160.998 192.194 160.94 190.17C160.925 189.73 160.918 189.107 160.918 188.3C160.918 187.493 160.925 186.877 160.94 186.452C160.998 184.472 161.57 182.969 162.656 181.942C163.741 180.901 165.208 180.38 167.056 180.38C168.889 180.38 170.348 180.901 171.434 181.942C172.519 182.969 173.091 184.472 173.15 186.452C173.179 187.303 173.194 187.919 173.194 188.3C173.194 188.667 173.179 189.29 173.15 190.17C173.091 192.194 172.534 193.712 171.478 194.724C170.436 195.721 168.962 196.22 167.056 196.22ZM167.056 194.35C168.214 194.35 169.138 193.998 169.828 193.294C170.517 192.59 170.891 191.512 170.95 190.06C170.979 189.18 170.994 188.593 170.994 188.3C170.994 187.977 170.979 187.391 170.95 186.54C170.891 185.088 170.51 184.01 169.806 183.306C169.116 182.602 168.2 182.25 167.056 182.25C165.897 182.25 164.966 182.602 164.262 183.306C163.572 184.01 163.198 185.088 163.14 186.54C163.125 186.965 163.118 187.552 163.118 188.3C163.118 189.033 163.125 189.62 163.14 190.06C163.198 191.512 163.572 192.59 164.262 193.294C164.966 193.998 165.897 194.35 167.056 194.35ZM180.272 196C180.126 196 180.001 195.956 179.898 195.868C179.81 195.765 179.766 195.641 179.766 195.494V182.558H175.542C175.396 182.558 175.271 182.514 175.168 182.426C175.08 182.323 175.036 182.199 175.036 182.052V181.128C175.036 180.981 175.08 180.857 175.168 180.754C175.271 180.651 175.396 180.6 175.542 180.6H186.146C186.308 180.6 186.432 180.651 186.52 180.754C186.623 180.842 186.674 180.967 186.674 181.128V182.052C186.674 182.199 186.623 182.323 186.52 182.426C186.418 182.514 186.293 182.558 186.146 182.558H181.944V195.494C181.944 195.641 181.893 195.765 181.79 195.868C181.688 195.956 181.563 196 181.416 196H180.272ZM194.685 196.22C192.763 196.22 191.275 195.721 190.219 194.724C189.177 193.712 188.627 192.194 188.569 190.17C188.554 189.73 188.547 189.107 188.547 188.3C188.547 187.493 188.554 186.877 188.569 186.452C188.627 184.472 189.199 182.969 190.285 181.942C191.37 180.901 192.837 180.38 194.685 180.38C196.518 180.38 197.977 180.901 199.063 181.942C200.148 182.969 200.72 184.472 200.779 186.452C200.808 187.303 200.823 187.919 200.823 188.3C200.823 188.667 200.808 189.29 200.779 190.17C200.72 192.194 200.163 193.712 199.107 194.724C198.065 195.721 196.591 196.22 194.685 196.22ZM194.685 194.35C195.843 194.35 196.767 193.998 197.457 193.294C198.146 192.59 198.52 191.512 198.579 190.06C198.608 189.18 198.623 188.593 198.623 188.3C198.623 187.977 198.608 187.391 198.579 186.54C198.52 185.088 198.139 184.01 197.435 183.306C196.745 182.602 195.829 182.25 194.685 182.25C193.526 182.25 192.595 182.602 191.891 183.306C191.201 184.01 190.827 185.088 190.769 186.54C190.754 186.965 190.747 187.552 190.747 188.3C190.747 189.033 190.754 189.62 190.769 190.06C190.827 191.512 191.201 192.59 191.891 193.294C192.595 193.998 193.526 194.35 194.685 194.35ZM209.928 196C209.781 196 209.656 195.956 209.554 195.868C209.466 195.765 209.422 195.641 209.422 195.494V181.128C209.422 180.967 209.466 180.842 209.554 180.754C209.656 180.651 209.781 180.6 209.928 180.6H220.774C220.935 180.6 221.06 180.651 221.148 180.754C221.25 180.842 221.302 180.967 221.302 181.128V195.494C221.302 195.641 221.25 195.765 221.148 195.868C221.045 195.956 220.92 196 220.774 196H219.652C219.505 196 219.38 195.956 219.278 195.868C219.19 195.765 219.146 195.641 219.146 195.494V182.58H211.578V195.494C211.578 195.641 211.526 195.765 211.424 195.868C211.321 195.956 211.196 196 211.05 196H209.928ZM225.633 196C225.486 196 225.362 195.956 225.259 195.868C225.171 195.765 225.127 195.641 225.127 195.494V181.128C225.127 180.967 225.171 180.842 225.259 180.754C225.362 180.651 225.486 180.6 225.633 180.6H231.221C232.878 180.6 234.184 181.003 235.137 181.81C236.09 182.617 236.567 183.783 236.567 185.308C236.567 186.833 236.09 187.999 235.137 188.806C234.198 189.598 232.893 189.994 231.221 189.994H227.327V195.494C227.327 195.641 227.276 195.765 227.173 195.868C227.07 195.956 226.946 196 226.799 196H225.633ZM231.111 188.146C232.182 188.146 232.988 187.904 233.531 187.42C234.088 186.936 234.367 186.232 234.367 185.308C234.367 184.384 234.096 183.68 233.553 183.196C233.01 182.697 232.196 182.448 231.111 182.448H227.305V188.146H231.111ZM244.786 196.22C242.865 196.22 241.376 195.721 240.32 194.724C239.279 193.712 238.729 192.194 238.67 190.17C238.655 189.73 238.648 189.107 238.648 188.3C238.648 187.493 238.655 186.877 238.67 186.452C238.729 184.472 239.301 182.969 240.386 181.942C241.471 180.901 242.938 180.38 244.786 180.38C246.619 180.38 248.079 180.901 249.164 181.942C250.249 182.969 250.821 184.472 250.88 186.452C250.909 187.303 250.924 187.919 250.924 188.3C250.924 188.667 250.909 189.29 250.88 190.17C250.821 192.194 250.264 193.712 249.208 194.724C248.167 195.721 246.693 196.22 244.786 196.22ZM244.786 194.35C245.945 194.35 246.869 193.998 247.558 193.294C248.247 192.59 248.621 191.512 248.68 190.06C248.709 189.18 248.724 188.593 248.724 188.3C248.724 187.977 248.709 187.391 248.68 186.54C248.621 185.088 248.24 184.01 247.536 183.306C246.847 182.602 245.93 182.25 244.786 182.25C243.627 182.25 242.696 182.602 241.992 183.306C241.303 184.01 240.929 185.088 240.87 186.54C240.855 186.965 240.848 187.552 240.848 188.3C240.848 189.033 240.855 189.62 240.87 190.06C240.929 191.512 241.303 192.59 241.992 193.294C242.696 193.998 243.627 194.35 244.786 194.35ZM259.477 196.22C257.687 196.22 256.257 195.692 255.187 194.636C254.131 193.58 253.573 191.915 253.515 189.642L253.493 188.322L253.515 186.958C253.573 184.699 254.131 183.042 255.187 181.986C256.257 180.915 257.687 180.38 259.477 180.38C261.075 180.38 262.388 180.732 263.415 181.436C264.441 182.14 265.028 183.086 265.175 184.274V184.318C265.175 184.435 265.123 184.538 265.021 184.626C264.933 184.699 264.83 184.736 264.713 184.736H263.547C263.4 184.736 263.29 184.707 263.217 184.648C263.143 184.575 263.077 184.457 263.019 184.296C262.857 183.695 262.476 183.203 261.875 182.822C261.288 182.441 260.496 182.25 259.499 182.25C258.267 182.25 257.328 182.639 256.683 183.416C256.037 184.179 255.715 185.352 255.715 186.936V187.376H261.061C261.207 187.376 261.325 187.427 261.413 187.53C261.515 187.633 261.567 187.757 261.567 187.904V188.652C261.567 188.799 261.515 188.923 261.413 189.026C261.325 189.129 261.207 189.18 261.061 189.18H255.715V189.686C255.715 191.138 256.045 192.282 256.705 193.118C257.379 193.939 258.311 194.35 259.499 194.35C260.496 194.35 261.288 194.167 261.875 193.8C262.476 193.419 262.865 192.927 263.041 192.326C263.099 192.15 263.165 192.033 263.239 191.974C263.312 191.915 263.422 191.886 263.569 191.886H264.735C264.867 191.886 264.977 191.93 265.065 192.018C265.167 192.091 265.211 192.194 265.197 192.326C265.05 193.514 264.456 194.46 263.415 195.164C262.388 195.868 261.075 196.22 259.477 196.22ZM279.467 195.23C279.511 195.289 279.533 195.369 279.533 195.472C279.533 195.619 279.482 195.743 279.379 195.846C279.291 195.949 279.174 196 279.027 196H277.773C277.626 196 277.509 195.971 277.421 195.912C277.348 195.853 277.274 195.773 277.201 195.67L272.977 189.18H270.359V195.494C270.359 195.641 270.308 195.765 270.205 195.868C270.102 195.956 269.978 196 269.831 196H268.709C268.562 196 268.438 195.956 268.335 195.868C268.247 195.765 268.203 195.641 268.203 195.494V181.128C268.203 180.967 268.247 180.842 268.335 180.754C268.438 180.651 268.562 180.6 268.709 180.6H269.831C269.992 180.6 270.117 180.651 270.205 180.754C270.308 180.842 270.359 180.967 270.359 181.128V187.2L272.867 187.222L276.761 180.952C276.908 180.717 277.157 180.6 277.509 180.6H278.697C279.005 180.6 279.159 180.747 279.159 181.04C279.159 181.113 279.122 181.209 279.049 181.326L274.825 188.058L279.467 195.23ZM286.147 196C286.001 196 285.876 195.956 285.773 195.868C285.685 195.765 285.641 195.641 285.641 195.494V182.558H281.417C281.271 182.558 281.146 182.514 281.043 182.426C280.955 182.323 280.911 182.199 280.911 182.052V181.128C280.911 180.981 280.955 180.857 281.043 180.754C281.146 180.651 281.271 180.6 281.417 180.6H292.021C292.183 180.6 292.307 180.651 292.395 180.754C292.498 180.842 292.549 180.967 292.549 181.128V182.052C292.549 182.199 292.498 182.323 292.395 182.426C292.293 182.514 292.168 182.558 292.021 182.558H287.819V195.494C287.819 195.641 287.768 195.765 287.665 195.868C287.563 195.956 287.438 196 287.291 196H286.147ZM305.62 180.6C305.737 180.6 305.84 180.644 305.928 180.732C306.016 180.82 306.06 180.923 306.06 181.04C306.06 181.157 306.038 181.26 305.994 181.348L301.506 191.512C300.992 192.671 300.53 193.558 300.12 194.174C299.724 194.775 299.254 195.23 298.712 195.538C298.169 195.846 297.465 196 296.6 196H295.72C295.573 196 295.448 195.956 295.346 195.868C295.258 195.765 295.214 195.641 295.214 195.494V194.57C295.214 194.423 295.258 194.299 295.346 194.196C295.448 194.093 295.573 194.042 295.72 194.042H296.49C297.076 194.042 297.56 193.866 297.942 193.514C298.338 193.147 298.741 192.539 299.152 191.688L293.454 181.304C293.41 181.216 293.388 181.135 293.388 181.062C293.388 180.945 293.432 180.842 293.52 180.754C293.622 180.651 293.732 180.6 293.85 180.6H295.104C295.324 180.6 295.5 180.725 295.632 180.974L300.208 189.312L303.882 180.974C303.926 180.857 303.999 180.769 304.102 180.71C304.204 180.637 304.314 180.6 304.432 180.6H305.62Z" fill="#D4AF37"/>
<circle cx="188" cy="188" r="187.5" stroke="#D4AF37"/>
</svg>
