<svg width="376" height="376" viewBox="0 0 376 376" fill="none" xmlns="http://www.w3.org/2000/svg">
<path d="M91.9375 188L83 179.062V177L94 188L83 199V196.938L91.9375 188Z" fill="#D4AF37"/>
<path d="M104.551 196C104.404 196 104.28 195.956 104.177 195.868C104.089 195.765 104.045 195.641 104.045 195.494V181.128C104.045 180.967 104.089 180.842 104.177 180.754C104.28 180.651 104.404 180.6 104.551 180.6H110.579C112.148 180.6 113.329 180.974 114.121 181.722C114.913 182.47 115.309 183.453 115.309 184.67C115.309 185.491 115.118 186.173 114.737 186.716C114.37 187.259 113.93 187.655 113.417 187.904C114.033 188.212 114.554 188.689 114.979 189.334C115.404 189.979 115.617 190.72 115.617 191.556C115.617 192.377 115.426 193.125 115.045 193.8C114.678 194.475 114.128 195.01 113.395 195.406C112.662 195.802 111.782 196 110.755 196H104.551ZM110.249 187.112C111.173 187.112 111.877 186.899 112.361 186.474C112.86 186.049 113.109 185.455 113.109 184.692C113.109 183.944 112.867 183.372 112.383 182.976C111.899 182.58 111.188 182.382 110.249 182.382H106.201V187.112H110.249ZM110.469 194.218C111.393 194.218 112.112 193.969 112.625 193.47C113.153 192.971 113.417 192.333 113.417 191.556C113.417 190.749 113.153 190.104 112.625 189.62C112.112 189.121 111.393 188.872 110.469 188.872H106.201V194.218H110.469ZM124.284 196.22C122.319 196.22 120.823 195.692 119.796 194.636C118.784 193.58 118.242 192.121 118.168 190.258C118.154 189.862 118.146 189.217 118.146 188.322C118.146 187.413 118.154 186.753 118.168 186.342C118.242 184.494 118.792 183.042 119.818 181.986C120.845 180.915 122.334 180.38 124.284 180.38C125.59 180.38 126.697 180.615 127.606 181.084C128.516 181.539 129.205 182.14 129.674 182.888C130.144 183.636 130.4 184.435 130.444 185.286V185.33C130.444 185.447 130.393 185.55 130.29 185.638C130.202 185.711 130.1 185.748 129.982 185.748H128.772C128.479 185.748 128.296 185.579 128.222 185.242C127.973 184.142 127.526 183.372 126.88 182.932C126.235 182.477 125.37 182.25 124.284 182.25C121.762 182.25 120.456 183.651 120.368 186.452C120.354 186.848 120.346 187.457 120.346 188.278C120.346 189.099 120.354 189.723 120.368 190.148C120.456 192.949 121.762 194.35 124.284 194.35C125.37 194.35 126.235 194.13 126.88 193.69C127.54 193.235 127.988 192.458 128.222 191.358C128.266 191.167 128.332 191.035 128.42 190.962C128.508 190.889 128.626 190.852 128.772 190.852H129.982C130.114 190.852 130.224 190.896 130.312 190.984C130.415 191.057 130.459 191.16 130.444 191.292C130.4 192.157 130.144 192.964 129.674 193.712C129.205 194.46 128.516 195.069 127.606 195.538C126.697 195.993 125.59 196.22 124.284 196.22ZM133.899 196C133.752 196 133.627 195.956 133.525 195.868C133.437 195.765 133.393 195.641 133.393 195.494V181.106C133.393 180.959 133.437 180.842 133.525 180.754C133.627 180.651 133.752 180.6 133.899 180.6H135.065C135.211 180.6 135.329 180.651 135.417 180.754C135.519 180.842 135.571 180.959 135.571 181.106V195.494C135.571 195.641 135.519 195.765 135.417 195.868C135.329 195.956 135.211 196 135.065 196H133.899ZM145.307 196C145.16 196 145.035 195.956 144.933 195.868C144.845 195.765 144.801 195.641 144.801 195.494V181.128C144.801 180.967 144.845 180.842 144.933 180.754C145.035 180.651 145.16 180.6 145.307 180.6H156.153C156.314 180.6 156.439 180.651 156.527 180.754C156.629 180.842 156.681 180.967 156.681 181.128V195.494C156.681 195.641 156.629 195.765 156.527 195.868C156.424 195.956 156.299 196 156.153 196H155.031C154.884 196 154.759 195.956 154.657 195.868C154.569 195.765 154.525 195.641 154.525 195.494V182.58H146.957V195.494C146.957 195.641 146.905 195.765 146.803 195.868C146.7 195.956 146.575 196 146.429 196H145.307ZM170.538 196C170.391 196 170.266 195.956 170.164 195.868C170.076 195.765 170.032 195.641 170.032 195.494V182.58H164.576V186.122C164.576 188.483 164.407 190.368 164.07 191.776C163.732 193.184 163.204 194.218 162.486 194.878C161.767 195.538 160.814 195.905 159.626 195.978C159.479 195.993 159.354 195.949 159.252 195.846C159.149 195.743 159.098 195.611 159.098 195.45V194.482C159.098 194.35 159.134 194.24 159.208 194.152C159.296 194.049 159.413 193.991 159.56 193.976C160.513 193.844 161.232 193.14 161.716 191.864C162.214 190.588 162.464 188.579 162.464 185.836V181.106C162.464 180.959 162.508 180.842 162.596 180.754C162.698 180.651 162.823 180.6 162.97 180.6H171.682C171.828 180.6 171.946 180.651 172.034 180.754C172.136 180.842 172.188 180.967 172.188 181.128V195.494C172.188 195.641 172.136 195.765 172.034 195.868C171.946 195.956 171.828 196 171.682 196H170.538ZM174.984 196C174.866 196 174.764 195.956 174.676 195.868C174.588 195.78 174.544 195.677 174.544 195.56C174.544 195.443 174.551 195.362 174.566 195.318L180.022 181.084C180.139 180.761 180.374 180.6 180.726 180.6H182.222C182.574 180.6 182.808 180.761 182.926 181.084L188.36 195.318L188.404 195.56C188.404 195.677 188.36 195.78 188.272 195.868C188.184 195.956 188.081 196 187.964 196H186.842C186.68 196 186.556 195.963 186.468 195.89C186.38 195.802 186.321 195.714 186.292 195.626L185.082 192.502H177.866L176.656 195.626C176.626 195.714 176.56 195.802 176.458 195.89C176.37 195.963 176.252 196 176.106 196H174.984ZM184.444 190.61L181.474 182.8L178.504 190.61H184.444ZM191.262 196C191.115 196 190.99 195.956 190.888 195.868C190.8 195.765 190.756 195.641 190.756 195.494V181.128C190.756 180.967 190.8 180.842 190.888 180.754C190.99 180.651 191.115 180.6 191.262 180.6H192.384C192.545 180.6 192.67 180.651 192.758 180.754C192.86 180.842 192.912 180.967 192.912 181.128V187.2H200.48V181.128C200.48 180.967 200.524 180.842 200.612 180.754C200.714 180.651 200.839 180.6 200.986 180.6H202.108C202.269 180.6 202.394 180.651 202.482 180.754C202.584 180.842 202.636 180.967 202.636 181.128V195.494C202.636 195.641 202.584 195.765 202.482 195.868C202.379 195.956 202.254 196 202.108 196H200.986C200.839 196 200.714 195.956 200.612 195.868C200.524 195.765 200.48 195.641 200.48 195.494V189.18H192.912V195.494C192.912 195.641 192.86 195.765 192.758 195.868C192.655 195.956 192.53 196 192.384 196H191.262ZM217.065 180.6C217.182 180.6 217.285 180.644 217.373 180.732C217.461 180.82 217.505 180.923 217.505 181.04C217.505 181.157 217.483 181.26 217.439 181.348L212.951 191.512C212.438 192.671 211.976 193.558 211.565 194.174C211.169 194.775 210.7 195.23 210.157 195.538C209.614 195.846 208.91 196 208.045 196H207.165C207.018 196 206.894 195.956 206.791 195.868C206.703 195.765 206.659 195.641 206.659 195.494V194.57C206.659 194.423 206.703 194.299 206.791 194.196C206.894 194.093 207.018 194.042 207.165 194.042H207.935C208.522 194.042 209.006 193.866 209.387 193.514C209.783 193.147 210.186 192.539 210.597 191.688L204.899 181.304C204.855 181.216 204.833 181.135 204.833 181.062C204.833 180.945 204.877 180.842 204.965 180.754C205.068 180.651 205.178 180.6 205.295 180.6H206.549C206.769 180.6 206.945 180.725 207.077 180.974L211.653 189.312L215.327 180.974C215.371 180.857 215.444 180.769 215.547 180.71C215.65 180.637 215.76 180.6 215.877 180.6H217.065ZM219.922 196C219.775 196 219.651 195.956 219.548 195.868C219.46 195.765 219.416 195.641 219.416 195.494V181.128C219.416 180.967 219.46 180.842 219.548 180.754C219.651 180.651 219.775 180.6 219.922 180.6H225.95C227.519 180.6 228.7 180.974 229.492 181.722C230.284 182.47 230.68 183.453 230.68 184.67C230.68 185.491 230.489 186.173 230.108 186.716C229.741 187.259 229.301 187.655 228.788 187.904C229.404 188.212 229.925 188.689 230.35 189.334C230.775 189.979 230.988 190.72 230.988 191.556C230.988 192.377 230.797 193.125 230.416 193.8C230.049 194.475 229.499 195.01 228.766 195.406C228.033 195.802 227.153 196 226.126 196H219.922ZM225.62 187.112C226.544 187.112 227.248 186.899 227.732 186.474C228.231 186.049 228.48 185.455 228.48 184.692C228.48 183.944 228.238 183.372 227.754 182.976C227.27 182.58 226.559 182.382 225.62 182.382H221.572V187.112H225.62ZM225.84 194.218C226.764 194.218 227.483 193.969 227.996 193.47C228.524 192.971 228.788 192.333 228.788 191.556C228.788 190.749 228.524 190.104 227.996 189.62C227.483 189.121 226.764 188.872 225.84 188.872H221.572V194.218H225.84ZM233.077 196C232.96 196 232.857 195.956 232.769 195.868C232.681 195.78 232.637 195.677 232.637 195.56C232.637 195.443 232.645 195.362 232.659 195.318L238.115 181.084C238.233 180.761 238.467 180.6 238.819 180.6H240.315C240.667 180.6 240.902 180.761 241.019 181.084L246.453 195.318L246.497 195.56C246.497 195.677 246.453 195.78 246.365 195.868C246.277 195.956 246.175 196 246.057 196H244.935C244.774 196 244.649 195.963 244.561 195.89C244.473 195.802 244.415 195.714 244.385 195.626L243.175 192.502H235.959L234.749 195.626C234.72 195.714 234.654 195.802 234.551 195.89C234.463 195.963 234.346 196 234.199 196H233.077ZM242.537 190.61L239.567 182.8L236.597 190.61H242.537ZM249.356 196C249.209 196 249.084 195.956 248.982 195.868C248.894 195.765 248.85 195.641 248.85 195.494V181.128C248.85 180.967 248.894 180.842 248.982 180.754C249.084 180.651 249.209 180.6 249.356 180.6H250.478C250.639 180.6 250.764 180.651 250.852 180.754C250.954 180.842 251.006 180.967 251.006 181.128V187.2H258.574V181.128C258.574 180.967 258.618 180.842 258.706 180.754C258.808 180.651 258.933 180.6 259.08 180.6H260.202C260.363 180.6 260.488 180.651 260.576 180.754C260.678 180.842 260.73 180.967 260.73 181.128V195.494C260.73 195.641 260.678 195.765 260.576 195.868C260.473 195.956 260.348 196 260.202 196H259.08C258.933 196 258.808 195.956 258.706 195.868C258.618 195.765 258.574 195.641 258.574 195.494V189.18H251.006V195.494C251.006 195.641 250.954 195.765 250.852 195.868C250.749 195.956 250.624 196 250.478 196H249.356ZM265.061 196C264.914 196 264.789 195.956 264.687 195.868C264.599 195.765 264.555 195.641 264.555 195.494V181.128C264.555 180.967 264.599 180.842 264.687 180.754C264.789 180.651 264.914 180.6 265.061 180.6H266.183C266.344 180.6 266.469 180.651 266.557 180.754C266.659 180.842 266.711 180.967 266.711 181.128V187.2H274.279V181.128C274.279 180.967 274.323 180.842 274.411 180.754C274.513 180.651 274.638 180.6 274.785 180.6H275.907C276.068 180.6 276.193 180.651 276.281 180.754C276.383 180.842 276.435 180.967 276.435 181.128V195.494C276.435 195.641 276.383 195.765 276.281 195.868C276.178 195.956 276.053 196 275.907 196H274.785C274.638 196 274.513 195.956 274.411 195.868C274.323 195.765 274.279 195.641 274.279 195.494V189.18H266.711V195.494C266.711 195.641 266.659 195.765 266.557 195.868C266.454 195.956 266.329 196 266.183 196H265.061ZM290.446 180.6C290.592 180.6 290.71 180.651 290.798 180.754C290.9 180.842 290.952 180.959 290.952 181.106V195.494C290.952 195.641 290.9 195.765 290.798 195.868C290.71 195.956 290.592 196 290.446 196H289.324C289.177 196 289.052 195.956 288.95 195.868C288.847 195.765 288.796 195.641 288.796 195.494V190.148H285.782L282.46 195.406C282.342 195.611 282.225 195.765 282.108 195.868C281.99 195.956 281.822 196 281.602 196H280.546C280.428 196 280.326 195.956 280.238 195.868C280.15 195.78 280.106 195.677 280.106 195.56C280.106 195.487 280.128 195.406 280.172 195.318L283.582 189.95C282.57 189.686 281.785 189.165 281.228 188.388C280.67 187.611 280.392 186.621 280.392 185.418C280.392 184.567 280.575 183.775 280.942 183.042C281.323 182.309 281.888 181.722 282.636 181.282C283.398 180.827 284.322 180.6 285.408 180.6H290.446ZM288.796 182.448H285.584C284.645 182.448 283.912 182.727 283.384 183.284C282.856 183.827 282.592 184.553 282.592 185.462C282.592 187.354 283.589 188.3 285.584 188.3H288.796V182.448Z" fill="#D4AF37"/>
<circle cx="188" cy="188" r="187.5" stroke="#D4AF37"/>
</svg>
