<svg width="376" height="376" viewBox="0 0 376 376" fill="none" xmlns="http://www.w3.org/2000/svg">
<path d="M78.9375 188L70 179.062V177L81 188L70 199V196.938L78.9375 188Z" fill="#D4AF37"/>
<path d="M91.794 196C91.6474 196 91.5227 195.956 91.42 195.868C91.332 195.765 91.288 195.641 91.288 195.494V181.128C91.288 180.967 91.332 180.842 91.42 180.754C91.5227 180.651 91.6474 180.6 91.794 180.6H97.822C99.3914 180.6 100.572 180.974 101.364 181.722C102.156 182.47 102.552 183.453 102.552 184.67C102.552 185.491 102.361 186.173 101.98 186.716C101.613 187.259 101.173 187.655 100.66 187.904C101.276 188.212 101.797 188.689 102.222 189.334C102.647 189.979 102.86 190.72 102.86 191.556C102.86 192.377 102.669 193.125 102.288 193.8C101.921 194.475 101.371 195.01 100.638 195.406C99.9047 195.802 99.0247 196 97.998 196H91.794ZM97.492 187.112C98.416 187.112 99.12 186.899 99.604 186.474C100.103 186.049 100.352 185.455 100.352 184.692C100.352 183.944 100.11 183.372 99.626 182.976C99.142 182.58 98.4307 182.382 97.492 182.382H93.444V187.112H97.492ZM97.712 194.218C98.636 194.218 99.3547 193.969 99.868 193.47C100.396 192.971 100.66 192.333 100.66 191.556C100.66 190.749 100.396 190.104 99.868 189.62C99.3547 189.121 98.636 188.872 97.712 188.872H93.444V194.218H97.712ZM111.527 196.22C109.562 196.22 108.066 195.692 107.039 194.636C106.027 193.58 105.485 192.121 105.411 190.258C105.397 189.862 105.389 189.217 105.389 188.322C105.389 187.413 105.397 186.753 105.411 186.342C105.485 184.494 106.035 183.042 107.061 181.986C108.088 180.915 109.577 180.38 111.527 180.38C112.833 180.38 113.94 180.615 114.849 181.084C115.759 181.539 116.448 182.14 116.917 182.888C117.387 183.636 117.643 184.435 117.687 185.286V185.33C117.687 185.447 117.636 185.55 117.533 185.638C117.445 185.711 117.343 185.748 117.225 185.748H116.015C115.722 185.748 115.539 185.579 115.465 185.242C115.216 184.142 114.769 183.372 114.123 182.932C113.478 182.477 112.613 182.25 111.527 182.25C109.005 182.25 107.699 183.651 107.611 186.452C107.597 186.848 107.589 187.457 107.589 188.278C107.589 189.099 107.597 189.723 107.611 190.148C107.699 192.949 109.005 194.35 111.527 194.35C112.613 194.35 113.478 194.13 114.123 193.69C114.783 193.235 115.231 192.458 115.465 191.358C115.509 191.167 115.575 191.035 115.663 190.962C115.751 190.889 115.869 190.852 116.015 190.852H117.225C117.357 190.852 117.467 190.896 117.555 190.984C117.658 191.057 117.702 191.16 117.687 191.292C117.643 192.157 117.387 192.964 116.917 193.712C116.448 194.46 115.759 195.069 114.849 195.538C113.94 195.993 112.833 196.22 111.527 196.22ZM121.142 196C120.995 196 120.87 195.956 120.768 195.868C120.68 195.765 120.636 195.641 120.636 195.494V181.106C120.636 180.959 120.68 180.842 120.768 180.754C120.87 180.651 120.995 180.6 121.142 180.6H122.308C122.454 180.6 122.572 180.651 122.66 180.754C122.762 180.842 122.814 180.959 122.814 181.106V195.494C122.814 195.641 122.762 195.765 122.66 195.868C122.572 195.956 122.454 196 122.308 196H121.142ZM138.974 196.704C138.827 196.704 138.703 196.653 138.6 196.55C138.512 196.462 138.468 196.345 138.468 196.198V194.46C136.283 194.46 134.618 193.991 133.474 193.052C132.33 192.113 131.663 190.683 131.472 188.762C131.457 188.63 131.45 188.417 131.45 188.124C131.45 187.699 131.457 187.398 131.472 187.222C131.575 185.359 132.235 183.944 133.452 182.976C134.684 182.008 136.356 181.524 138.468 181.524V180.006C138.468 179.845 138.512 179.72 138.6 179.632C138.703 179.544 138.827 179.5 138.974 179.5H140.118C140.265 179.5 140.382 179.551 140.47 179.654C140.573 179.742 140.624 179.859 140.624 180.006V181.524C142.736 181.524 144.401 182.008 145.618 182.976C146.85 183.944 147.51 185.359 147.598 187.222C147.627 187.603 147.642 187.86 147.642 187.992C147.642 188.124 147.627 188.381 147.598 188.762C147.437 190.683 146.777 192.113 145.618 193.052C144.459 193.991 142.795 194.46 140.624 194.46V196.198C140.624 196.345 140.573 196.462 140.47 196.55C140.382 196.653 140.265 196.704 140.118 196.704H138.974ZM138.468 183.394C136.987 183.394 135.843 183.709 135.036 184.34C134.244 184.971 133.789 185.961 133.672 187.31C133.657 187.457 133.65 187.647 133.65 187.882C133.65 188.205 133.657 188.461 133.672 188.652C133.745 190.001 134.185 190.991 134.992 191.622C135.813 192.253 136.972 192.568 138.468 192.568V183.394ZM140.602 192.568C143.667 192.568 145.273 191.263 145.42 188.652C145.435 188.505 145.442 188.278 145.442 187.97C145.442 187.677 145.435 187.457 145.42 187.31C145.273 185.961 144.804 184.971 144.012 184.34C143.22 183.709 142.083 183.394 140.602 183.394V192.568ZM156.43 196.22C154.508 196.22 153.02 195.721 151.964 194.724C150.922 193.712 150.372 192.194 150.314 190.17C150.299 189.73 150.292 189.107 150.292 188.3C150.292 187.493 150.299 186.877 150.314 186.452C150.372 184.472 150.944 182.969 152.03 181.942C153.115 180.901 154.582 180.38 156.43 180.38C158.263 180.38 159.722 180.901 160.808 181.942C161.893 182.969 162.465 184.472 162.524 186.452C162.553 187.303 162.568 187.919 162.568 188.3C162.568 188.667 162.553 189.29 162.524 190.17C162.465 192.194 161.908 193.712 160.852 194.724C159.81 195.721 158.336 196.22 156.43 196.22ZM156.43 194.35C157.588 194.35 158.512 193.998 159.202 193.294C159.891 192.59 160.265 191.512 160.324 190.06C160.353 189.18 160.368 188.593 160.368 188.3C160.368 187.977 160.353 187.391 160.324 186.54C160.265 185.088 159.884 184.01 159.18 183.306C158.49 182.602 157.574 182.25 156.43 182.25C155.271 182.25 154.34 182.602 153.636 183.306C152.946 184.01 152.572 185.088 152.514 186.54C152.499 186.965 152.492 187.552 152.492 188.3C152.492 189.033 152.499 189.62 152.514 190.06C152.572 191.512 152.946 192.59 153.636 193.294C154.34 193.998 155.271 194.35 156.43 194.35ZM169.646 196C169.5 196 169.375 195.956 169.272 195.868C169.184 195.765 169.14 195.641 169.14 195.494V182.558H164.916C164.77 182.558 164.645 182.514 164.542 182.426C164.454 182.323 164.41 182.199 164.41 182.052V181.128C164.41 180.981 164.454 180.857 164.542 180.754C164.645 180.651 164.77 180.6 164.916 180.6H175.52C175.682 180.6 175.806 180.651 175.894 180.754C175.997 180.842 176.048 180.967 176.048 181.128V182.052C176.048 182.199 175.997 182.323 175.894 182.426C175.792 182.514 175.667 182.558 175.52 182.558H171.318V195.494C171.318 195.641 171.267 195.765 171.164 195.868C171.062 195.956 170.937 196 170.79 196H169.646ZM184.059 196.22C182.137 196.22 180.649 195.721 179.593 194.724C178.551 193.712 178.001 192.194 177.943 190.17C177.928 189.73 177.921 189.107 177.921 188.3C177.921 187.493 177.928 186.877 177.943 186.452C178.001 184.472 178.573 182.969 179.659 181.942C180.744 180.901 182.211 180.38 184.059 180.38C185.892 180.38 187.351 180.901 188.437 181.942C189.522 182.969 190.094 184.472 190.153 186.452C190.182 187.303 190.197 187.919 190.197 188.3C190.197 188.667 190.182 189.29 190.153 190.17C190.094 192.194 189.537 193.712 188.481 194.724C187.439 195.721 185.965 196.22 184.059 196.22ZM184.059 194.35C185.217 194.35 186.141 193.998 186.831 193.294C187.52 192.59 187.894 191.512 187.953 190.06C187.982 189.18 187.997 188.593 187.997 188.3C187.997 187.977 187.982 187.391 187.953 186.54C187.894 185.088 187.513 184.01 186.809 183.306C186.119 182.602 185.203 182.25 184.059 182.25C182.9 182.25 181.969 182.602 181.265 183.306C180.575 184.01 180.201 185.088 180.143 186.54C180.128 186.965 180.121 187.552 180.121 188.3C180.121 189.033 180.128 189.62 180.143 190.06C180.201 191.512 180.575 192.59 181.265 193.294C181.969 193.998 182.9 194.35 184.059 194.35ZM199.302 196C199.155 196 199.031 195.956 198.928 195.868C198.84 195.765 198.796 195.641 198.796 195.494V181.106C198.796 180.959 198.84 180.842 198.928 180.754C199.031 180.651 199.155 180.6 199.302 180.6H200.468C200.615 180.6 200.732 180.651 200.82 180.754C200.923 180.842 200.974 180.959 200.974 181.106V195.494C200.974 195.641 200.923 195.765 200.82 195.868C200.732 195.956 200.615 196 200.468 196H199.302ZM205.317 196C205.171 196 205.046 195.956 204.943 195.868C204.855 195.765 204.811 195.641 204.811 195.494V181.128C204.811 180.967 204.855 180.842 204.943 180.754C205.046 180.651 205.171 180.6 205.317 180.6H206.439C206.601 180.6 206.725 180.651 206.813 180.754C206.916 180.842 206.967 180.967 206.967 181.128V187.2H214.535V181.128C214.535 180.967 214.579 180.842 214.667 180.754C214.77 180.651 214.895 180.6 215.041 180.6H216.163C216.325 180.6 216.449 180.651 216.537 180.754C216.64 180.842 216.691 180.967 216.691 181.128V195.494C216.691 195.641 216.64 195.765 216.537 195.868C216.435 195.956 216.31 196 216.163 196H215.041C214.895 196 214.77 195.956 214.667 195.868C214.579 195.765 214.535 195.641 214.535 195.494V189.18H206.967V195.494C206.967 195.641 206.916 195.765 206.813 195.868C206.711 195.956 206.586 196 206.439 196H205.317ZM224.389 196C224.242 196 224.117 195.956 224.015 195.868C223.927 195.765 223.883 195.641 223.883 195.494V182.558H219.659C219.512 182.558 219.387 182.514 219.285 182.426C219.197 182.323 219.153 182.199 219.153 182.052V181.128C219.153 180.981 219.197 180.857 219.285 180.754C219.387 180.651 219.512 180.6 219.659 180.6H230.263C230.424 180.6 230.549 180.651 230.637 180.754C230.739 180.842 230.791 180.967 230.791 181.128V182.052C230.791 182.199 230.739 182.323 230.637 182.426C230.534 182.514 230.409 182.558 230.263 182.558H226.061V195.494C226.061 195.641 226.009 195.765 225.907 195.868C225.804 195.956 225.679 196 225.533 196H224.389ZM233.763 196C233.616 196 233.491 195.956 233.389 195.868C233.301 195.765 233.257 195.641 233.257 195.494V181.128C233.257 180.967 233.301 180.842 233.389 180.754C233.491 180.651 233.616 180.6 233.763 180.6H242.849C242.995 180.6 243.113 180.651 243.201 180.754C243.303 180.842 243.355 180.967 243.355 181.128V181.964C243.355 182.111 243.311 182.235 243.223 182.338C243.135 182.426 243.01 182.47 242.849 182.47H235.369V187.288H242.365C242.511 187.288 242.629 187.339 242.717 187.442C242.819 187.53 242.871 187.655 242.871 187.816V188.63C242.871 188.777 242.819 188.901 242.717 189.004C242.629 189.092 242.511 189.136 242.365 189.136H235.369V194.13H243.025C243.186 194.13 243.311 194.174 243.399 194.262C243.487 194.35 243.531 194.475 243.531 194.636V195.494C243.531 195.641 243.479 195.765 243.377 195.868C243.289 195.956 243.171 196 243.025 196H233.763ZM247.105 196C246.958 196 246.833 195.956 246.731 195.868C246.643 195.765 246.599 195.641 246.599 195.494V181.128C246.599 180.967 246.643 180.842 246.731 180.754C246.833 180.651 246.958 180.6 247.105 180.6H252.693C254.35 180.6 255.655 181.003 256.609 181.81C257.562 182.617 258.039 183.783 258.039 185.308C258.039 186.833 257.562 187.999 256.609 188.806C255.67 189.598 254.365 189.994 252.693 189.994H248.799V195.494C248.799 195.641 248.747 195.765 248.645 195.868C248.542 195.956 248.417 196 248.271 196H247.105ZM252.583 188.146C253.653 188.146 254.46 187.904 255.003 187.42C255.56 186.936 255.839 186.232 255.839 185.308C255.839 184.384 255.567 183.68 255.025 183.196C254.482 182.697 253.668 182.448 252.583 182.448H248.777V188.146H252.583ZM260.406 184.626C260.288 184.626 260.193 184.582 260.12 184.494C260.061 184.406 260.039 184.296 260.054 184.164L260.56 181.018C260.618 180.593 260.824 180.38 261.176 180.38H262.65C262.752 180.38 262.833 180.417 262.892 180.49C262.965 180.563 263.002 180.651 263.002 180.754C263.002 180.871 262.972 180.989 262.914 181.106L261.77 184.12C261.696 184.296 261.616 184.428 261.528 184.516C261.44 184.589 261.308 184.626 261.132 184.626H260.406ZM270.743 196.22C268.954 196.22 267.524 195.692 266.453 194.636C265.397 193.58 264.84 191.915 264.781 189.642L264.759 188.322L264.781 186.958C264.84 184.699 265.397 183.042 266.453 181.986C267.524 180.915 268.954 180.38 270.743 180.38C272.342 180.38 273.655 180.732 274.681 181.436C275.708 182.14 276.295 183.086 276.441 184.274V184.318C276.441 184.435 276.39 184.538 276.287 184.626C276.199 184.699 276.097 184.736 275.979 184.736H274.813C274.667 184.736 274.557 184.707 274.483 184.648C274.41 184.575 274.344 184.457 274.285 184.296C274.124 183.695 273.743 183.203 273.141 182.822C272.555 182.441 271.763 182.25 270.765 182.25C269.533 182.25 268.595 182.639 267.949 183.416C267.304 184.179 266.981 185.352 266.981 186.936V187.376H272.327C272.474 187.376 272.591 187.427 272.679 187.53C272.782 187.633 272.833 187.757 272.833 187.904V188.652C272.833 188.799 272.782 188.923 272.679 189.026C272.591 189.129 272.474 189.18 272.327 189.18H266.981V189.686C266.981 191.138 267.311 192.282 267.971 193.118C268.646 193.939 269.577 194.35 270.765 194.35C271.763 194.35 272.555 194.167 273.141 193.8C273.743 193.419 274.131 192.927 274.307 192.326C274.366 192.15 274.432 192.033 274.505 191.974C274.579 191.915 274.689 191.886 274.835 191.886H276.001C276.133 191.886 276.243 191.93 276.331 192.018C276.434 192.091 276.478 192.194 276.463 192.326C276.317 193.514 275.723 194.46 274.681 195.164C273.655 195.868 272.342 196.22 270.743 196.22ZM279.976 196C279.829 196 279.704 195.956 279.602 195.868C279.514 195.765 279.47 195.641 279.47 195.494V181.128C279.47 180.967 279.514 180.842 279.602 180.754C279.704 180.651 279.829 180.6 279.976 180.6H285.564C287.221 180.6 288.526 181.003 289.48 181.81C290.433 182.617 290.91 183.783 290.91 185.308C290.91 186.833 290.433 187.999 289.48 188.806C288.541 189.598 287.236 189.994 285.564 189.994H281.67V195.494C281.67 195.641 281.618 195.765 281.516 195.868C281.413 195.956 281.288 196 281.142 196H279.976ZM285.454 188.146C286.524 188.146 287.331 187.904 287.874 187.42C288.431 186.936 288.71 186.232 288.71 185.308C288.71 184.384 288.438 183.68 287.896 183.196C287.353 182.697 286.539 182.448 285.454 182.448H281.648V188.146H285.454ZM304.189 180.6C304.306 180.6 304.409 180.644 304.497 180.732C304.585 180.82 304.629 180.923 304.629 181.04C304.629 181.157 304.607 181.26 304.563 181.348L300.075 191.512C299.562 192.671 299.1 193.558 298.689 194.174C298.293 194.775 297.824 195.23 297.281 195.538C296.738 195.846 296.034 196 295.169 196H294.289C294.142 196 294.018 195.956 293.915 195.868C293.827 195.765 293.783 195.641 293.783 195.494V194.57C293.783 194.423 293.827 194.299 293.915 194.196C294.018 194.093 294.142 194.042 294.289 194.042H295.059C295.646 194.042 296.13 193.866 296.511 193.514C296.907 193.147 297.31 192.539 297.721 191.688L292.023 181.304C291.979 181.216 291.957 181.135 291.957 181.062C291.957 180.945 292.001 180.842 292.089 180.754C292.192 180.651 292.302 180.6 292.419 180.6H293.673C293.893 180.6 294.069 180.725 294.201 180.974L298.777 189.312L302.451 180.974C302.495 180.857 302.568 180.769 302.671 180.71C302.774 180.637 302.884 180.6 303.001 180.6H304.189Z" fill="#D4AF37"/>
<circle cx="188" cy="188" r="187.5" stroke="#D4AF37"/>
</svg>
