<svg width="202" height="312" viewBox="0 0 202 312" fill="none" xmlns="http://www.w3.org/2000/svg">
<path d="M139.127 257.938C139.269 260.835 139.891 263.688 140.968 266.38C142.188 270.245 143.676 274.019 145.421 277.677C142.29 277.006 139.221 276.051 136.227 275.211C135.457 275.007 134.75 274.697 134.023 274.482L130.046 273.135C124.189 271.074 118.482 268.615 112.966 265.775C91.485 255.049 73.1617 238.992 59.7627 219.151C53.6118 209.831 49.8397 199.154 48.7721 188.044C48.3629 182.789 49.0768 177.504 50.867 172.536C52.7003 167.76 55.6758 163.498 59.5355 160.118C67.6788 153.78 77.7464 150.392 88.0708 150.516C98.2638 150.331 108.433 151.48 118.316 153.936C122.62 154.861 126.656 156.74 130.123 159.433C131.768 160.83 133.013 162.633 133.736 164.662C134.458 166.691 134.632 168.874 134.24 170.994C133.28 175.159 130.95 178.89 127.62 181.596C124.409 184.431 120.611 186.526 116.496 187.734C108.165 190.416 99.3555 191.28 90.6692 190.267C81.9828 189.255 73.6242 186.389 66.1638 181.866C52.0449 174.113 41.0019 161.819 34.8394 146.993C29.7659 133.396 28.4416 118.687 31.0036 104.388C33.1699 91.6059 37.791 79.3507 44.6142 68.2931C50.501 58.5596 57.9141 49.8217 66.5721 42.4111C80.2027 30.796 95.8332 21.7323 112.703 15.6611C122.982 11.8312 133.522 8.73844 144.242 6.40652C148.022 5.85545 151.733 4.90797 155.314 3.57995C155.186 3.07792 154.468 2.72626 150.866 2.84373C143.767 3.3141 136.719 4.38291 129.798 6.0385C122.992 7.57007 116.284 9.50586 109.709 11.8355C100.308 15.1123 91.2306 19.2497 82.5943 24.1942C70.8759 30.9538 60.2679 39.4637 51.1428 49.4249C39.3239 62.59 30.8207 78.3567 26.3372 95.4192C22.7887 108.921 22.3303 123.033 24.996 136.716C26.4222 143.501 28.718 150.074 31.8274 156.273C35.0995 162.344 39.1293 167.978 43.8213 173.042C53.2244 182.914 65.0013 190.243 78.0479 194.341C84.4778 196.41 91.194 197.477 97.9581 197.502C101.321 197.526 104.683 197.308 108.016 196.851C109.658 196.431 111.3 196.012 112.9 195.604C114.566 195.357 116.203 194.939 117.783 194.357C124.765 192.331 131.033 188.383 135.862 182.968C138.292 180.299 140.117 177.143 141.213 173.714C142.258 170.31 142.282 166.68 141.282 163.269C140.04 159.963 138.059 156.982 135.489 154.55C132.919 152.119 129.826 150.3 126.443 149.232C123.23 147.983 119.908 147.026 116.52 146.373C113.537 145.753 110.575 145.217 107.592 144.775C95.6159 142.629 83.3097 143.051 71.4953 146.013C65.5166 147.695 59.9661 150.632 55.2182 154.624C50.4412 158.674 46.7213 163.814 44.3781 169.602C40.5155 180.528 40.546 192.432 44.4644 203.315C47.7199 213.26 52.7319 222.544 59.2659 230.731C70.9452 245.472 85.2974 257.904 101.584 267.388C108.928 271.691 116.631 275.36 124.608 278.356C126.507 279.119 128.363 279.714 130.272 280.341L131.643 280.793L134.269 281.594C137.738 282.535 140.88 283.426 143.821 283.879C139.146 287.701 129.615 294.279 128.548 296.423C137.972 295.221 148.796 287.912 154.983 282.812C154.823 282.184 152.059 278.032 148.764 272.679C145.885 267.557 142.665 262.632 139.127 257.938Z" fill="#67686C"/>
</svg>
