<svg width="112" height="86" viewBox="0 0 112 86" fill="none" xmlns="http://www.w3.org/2000/svg">
<path fill-rule="evenodd" clip-rule="evenodd" d="M55.4969 1.38957e-06C63.8612 -0.00244459 71.9042 3.22433 77.9521 9.00875C84.0001 14.7932 87.587 22.6897 87.9665 31.0549C88.346 39.4201 85.4888 47.6096 79.9894 53.919C74.4901 60.2285 66.7723 64.1719 58.4423 64.9285C57.8084 62.5633 57.8084 60.0727 58.4423 57.7075C64.4802 56.9979 70.0614 54.1363 74.1654 49.6461C78.2694 45.1558 80.622 39.3367 80.7932 33.2528C80.9645 27.1688 78.9428 21.2264 75.0979 16.5119C71.2529 11.7974 65.8416 8.6258 59.8531 7.57692C53.8646 6.52804 47.6991 7.67196 42.4838 10.7995C37.2684 13.9271 33.3517 18.8294 31.4495 24.6102C29.5474 30.391 29.787 36.6641 32.1244 42.2826C34.4619 47.9011 38.7412 52.4897 44.1798 55.2094V18.8844H66.3938C66.5339 19.657 66.6392 20.3771 66.7097 21.0448C66.7774 21.6749 66.8123 22.3082 66.814 22.9419C66.7916 24.3391 66.651 25.7319 66.3938 27.1054H53.4962V33.5337H63.6557C64.2883 36.2558 64.2883 39.087 63.6557 41.8091H53.4962V65C45.067 64.4803 37.1711 60.6955 31.4815 54.4476C25.7918 48.1997 22.7553 39.9795 23.0154 31.5288C23.2756 23.078 26.8118 15.0606 32.875 9.17533C38.9381 3.29 47.0518 -0.000858873 55.4969 1.38957e-06Z" fill="#D4AF37"/>
<path d="M102.471 81.7556L103.96 81.6153C104.004 82.1682 104.173 82.7021 104.453 83.1726C104.759 83.6119 105.177 83.9513 105.659 84.1514C106.241 84.4082 106.867 84.5356 107.498 84.5255C108.044 84.5368 108.586 84.4405 109.098 84.2417C109.509 84.0934 109.869 83.8219 110.135 83.4608C110.355 83.1494 110.475 82.7721 110.476 82.3842C110.481 82.0117 110.366 81.6481 110.149 81.3532C109.859 81.0097 109.486 80.754 109.069 80.6127C108.368 80.3715 107.656 80.1676 106.935 80.0015C106.139 79.8315 105.363 79.5681 104.622 79.2163C104.105 78.9512 103.665 78.5461 103.348 78.0429C103.066 77.575 102.92 77.0314 102.927 76.478C102.927 75.843 103.107 75.2225 103.445 74.6956C103.81 74.1232 104.335 73.6833 104.948 73.4362C105.646 73.1403 106.393 72.9925 107.146 73.0012C107.95 72.9845 108.749 73.138 109.495 73.4525C110.133 73.7175 110.679 74.1799 111.06 74.7782C111.427 75.3689 111.631 76.0548 111.649 76.7596L110.125 76.8825C110.109 76.54 110.027 76.2045 109.885 75.8958C109.742 75.5872 109.542 75.3118 109.296 75.086C108.687 74.6363 107.949 74.4212 107.207 74.477C106.468 74.4135 105.731 74.6081 105.109 75.0305C104.907 75.1831 104.742 75.3834 104.628 75.6152C104.513 75.8471 104.453 76.1039 104.45 76.3649C104.446 76.5752 104.485 76.784 104.565 76.9767C104.646 77.1693 104.766 77.341 104.917 77.4796C105.648 77.9447 106.461 78.2496 107.307 78.3757C108.212 78.5618 109.099 78.8299 109.96 79.1772C110.576 79.4462 111.111 79.8888 111.503 80.4561C111.838 80.9832 112.011 81.6051 111.999 82.2385C111.999 82.9108 111.809 83.5678 111.452 84.1264C111.067 84.736 110.522 85.2151 109.882 85.5053C109.156 85.8424 108.369 86.0101 107.576 85.9969C106.646 86.0255 105.721 85.8561 104.856 85.4988C104.151 85.1939 103.551 84.6726 103.134 84.0035C102.714 83.3325 102.486 82.5495 102.476 81.7469L102.471 81.7556ZM95.8171 85.7859V74.6869H91.8669V73.2111H101.357V74.6869H97.4072V85.7794L95.8171 85.7859ZM80.6671 85.7859V73.2155H82.2955L88.5842 83.0846V73.2155H90.1069V85.7892H88.4774L82.1898 75.9201V85.7892L80.6671 85.7859ZM69.5534 85.7859V73.2155H78.1992V74.6869H71.1362V78.5497H77.7472V80.0254H71.1362V84.3102H78.4842V85.7848L69.5534 85.7859ZM55.5437 85.7859V73.2155H57.9204L60.7543 82.1156C61.0169 82.9443 61.2076 83.5649 61.3265 83.9774C61.4647 83.5207 61.6786 82.8486 61.9681 81.9612L64.8528 73.2155H66.9756V85.7892H65.4498V75.2708L61.9525 85.7892H60.5242L57.0643 75.0773V85.7892L55.5437 85.7859ZM48.3999 85.7859V74.6869H44.4496V73.2111H53.9391V74.6869H49.9899V85.7794L48.3999 85.7859ZM35.183 78.765H38.586C39.16 78.7876 39.7334 78.7074 40.2817 78.5279C40.6634 78.3941 40.9902 78.1279 41.2084 77.7732C41.4174 77.4381 41.5281 77.0459 41.5266 76.6455C41.5337 76.3684 41.4824 76.0932 41.3763 75.8394C41.2702 75.5856 41.112 75.3595 40.913 75.1773C40.3533 74.7452 39.663 74.5411 38.9705 74.6031H35.183V78.765ZM33.592 85.7892V73.2155H38.9042C39.7285 73.1785 40.5527 73.2937 41.339 73.5558C41.8989 73.785 42.3681 74.2068 42.6699 74.7521C43.001 75.322 43.1731 75.978 43.1664 76.6455C43.1852 77.4831 42.8871 78.2944 42.3372 78.902C41.6401 79.5842 40.7413 79.9952 39.7904 80.0667C40.1353 80.2284 40.4572 80.4392 40.7471 80.6931C41.2513 81.1893 41.692 81.7519 42.0584 82.3668L44.1314 85.7914H42.1506L40.573 83.1694C40.1138 82.4081 39.7313 81.835 39.4328 81.4294C39.2078 81.1068 38.9356 80.8234 38.6264 80.5898C38.4038 80.4371 38.1586 80.3243 37.9008 80.256C37.6091 80.2087 37.3139 80.1891 37.0187 80.1972H35.183V85.7816L33.592 85.7892ZM24.5296 80.6268H28.6135L27.3634 77.1403C26.9875 76.081 26.7011 75.206 26.5041 74.515C26.3387 75.3374 26.1177 76.1464 25.8428 76.9358L24.5296 80.6268ZM21.0862 85.7892L25.6832 73.2155H27.4277L32.3056 85.7892H30.501L29.1152 81.9829H24.0662L22.7664 85.7892H21.0862ZM14.0678 79.1859H17.1639C17.9366 79.2631 18.7103 79.0508 19.3479 78.5866C19.5673 78.3716 19.7388 78.1085 19.8502 77.816C19.9617 77.5236 20.0103 77.2089 19.9927 76.8945C20.0055 76.4138 19.8727 75.9413 19.6133 75.5449C19.3736 75.181 19.0189 74.9179 18.612 74.8021C18.1245 74.7102 17.6289 74.6737 17.1339 74.6934H14.0658L14.0678 79.1859ZM12.4778 85.7892V73.2155H17.0023C17.6125 73.2026 18.2227 73.2429 18.8266 73.3362C19.3552 73.4147 19.861 73.6145 20.3078 73.9213C20.7231 74.231 21.0549 74.6484 21.2707 75.1327C21.5896 75.8519 21.7017 76.653 21.5933 77.438C21.4848 78.223 21.1606 78.9578 20.6602 79.5524C20.1757 79.9771 19.6141 80.2944 19.0095 80.4851C18.4048 80.6757 17.7696 80.7358 17.1422 80.6616H14.0658V85.7892H12.4778ZM3.44751 80.6268H7.53145L6.28139 77.1403C5.90513 76.081 5.62112 75.2056 5.42314 74.515C5.25725 75.3373 5.03626 76.1462 4.76183 76.9358L3.44751 80.6268ZM0 85.7892L4.59702 73.2155H6.34048L11.2194 85.7892H9.41276L8.02588 81.9829H2.98003L1.68022 85.7892H0Z" fill="#D4AF37"/>
</svg>
