<svg width="30" height="30" viewBox="0 0 30 30" fill="none" xmlns="http://www.w3.org/2000/svg">
<path d="M3.99076 2.59751C5.99541 0.926807 8.52495 0.0164289 11.1345 0.026449C17.2601 0.0460481 22.21 5.02773 22.1903 11.1533C22.1821 13.7169 21.2861 16.1985 19.6547 18.176L30 28.5515L28.5783 29.9733L18.1927 19.6381C13.487 23.5598 6.49314 22.9244 2.57138 18.2188C-1.35038 13.5131 -0.714891 6.51927 3.99076 2.59751ZM11.1345 20.5052C16.319 20.5052 20.5219 16.3023 20.5219 11.1179C20.5219 5.93338 16.319 1.73049 11.1345 1.73049C5.95004 1.73049 1.74715 5.93338 1.74715 11.1179C1.75269 16.3001 5.95231 20.4997 11.1345 20.5052Z" fill="white"/>
</svg>
