<svg width="152" height="110" viewBox="0 0 152 110" fill="none" xmlns="http://www.w3.org/2000/svg">
<rect width="152" height="110" fill="#D4AF37"/>
<path fill-rule="evenodd" clip-rule="evenodd" d="M74.4969 12C82.8612 11.9976 90.9042 15.2243 96.9521 21.0088C103 26.7932 106.587 34.6897 106.967 43.0549C107.346 51.4201 104.489 59.6096 98.9894 65.919C93.4901 72.2285 85.7723 76.1719 77.4423 76.9285C76.8084 74.5633 76.8084 72.0727 77.4423 69.7075C83.4802 68.9979 89.0614 66.1363 93.1654 61.6461C97.2694 57.1558 99.622 51.3367 99.7932 45.2528C99.9645 39.1688 97.9428 33.2264 94.0979 28.5119C90.2529 23.7974 84.8416 20.6258 78.8531 19.5769C72.8646 18.528 66.6991 19.672 61.4838 22.7995C56.2684 25.9271 52.3517 30.8294 50.4495 36.6102C48.5474 42.391 48.787 48.6641 51.1244 54.2826C53.4619 59.9011 57.7412 64.4897 63.1798 67.2094V30.8844H85.3938C85.5339 31.657 85.6392 32.3771 85.7097 33.0448C85.7774 33.6749 85.8123 34.3082 85.814 34.9419C85.7916 36.3391 85.651 37.7319 85.3938 39.1054H72.4962V45.5337H82.6557C83.2883 48.2558 83.2883 51.087 82.6557 53.8091H72.4962V77C64.067 76.4803 56.1711 72.6955 50.4815 66.4476C44.7918 60.1997 41.7553 51.9795 42.0154 43.5288C42.2756 35.078 45.8118 27.0606 51.875 21.1753C57.9381 15.29 66.0518 11.9991 74.4969 12Z" fill="white"/>
<path d="M121.471 93.7556L122.96 93.6153C123.004 94.1682 123.173 94.7021 123.453 95.1726C123.759 95.6119 124.177 95.9513 124.659 96.1514C125.241 96.4082 125.867 96.5356 126.498 96.5255C127.044 96.5368 127.586 96.4405 128.098 96.2417C128.509 96.0934 128.869 95.8219 129.135 95.4608C129.355 95.1494 129.475 94.7721 129.476 94.3842C129.481 94.0117 129.366 93.6481 129.149 93.3532C128.859 93.0097 128.486 92.754 128.069 92.6127C127.368 92.3715 126.656 92.1676 125.935 92.0015C125.139 91.8315 124.363 91.5681 123.622 91.2163C123.105 90.9512 122.665 90.5461 122.348 90.0429C122.066 89.575 121.92 89.0314 121.927 88.478C121.927 87.843 122.107 87.2225 122.445 86.6956C122.81 86.1232 123.335 85.6833 123.948 85.4362C124.646 85.1403 125.393 84.9925 126.146 85.0012C126.95 84.9845 127.749 85.138 128.495 85.4525C129.133 85.7175 129.679 86.1799 130.06 86.7782C130.427 87.3689 130.631 88.0548 130.649 88.7596L129.125 88.8825C129.109 88.54 129.027 88.2045 128.885 87.8958C128.742 87.5872 128.542 87.3118 128.296 87.086C127.687 86.6363 126.949 86.4212 126.207 86.477C125.468 86.4135 124.731 86.6081 124.109 87.0305C123.907 87.1831 123.742 87.3834 123.628 87.6152C123.513 87.8471 123.453 88.1039 123.45 88.3649C123.446 88.5752 123.485 88.784 123.565 88.9767C123.646 89.1693 123.766 89.341 123.917 89.4796C124.648 89.9447 125.461 90.2496 126.307 90.3757C127.212 90.5618 128.099 90.8299 128.96 91.1772C129.576 91.4462 130.111 91.8888 130.503 92.4561C130.838 92.9832 131.011 93.6051 130.999 94.2385C130.999 94.9108 130.809 95.5678 130.452 96.1264C130.067 96.736 129.522 97.2151 128.882 97.5053C128.156 97.8424 127.369 98.0101 126.576 97.9969C125.646 98.0255 124.721 97.8561 123.856 97.4988C123.151 97.1939 122.551 96.6726 122.134 96.0035C121.714 95.3325 121.486 94.5495 121.476 93.7469L121.471 93.7556ZM114.817 97.7859V86.6869H110.867V85.2111H120.357V86.6869H116.407V97.7794L114.817 97.7859ZM99.6671 97.7859V85.2155H101.296L107.584 95.0846V85.2155H109.107V97.7892H107.477L101.19 87.9201V97.7892L99.6671 97.7859ZM88.5534 97.7859V85.2155H97.1992V86.6869H90.1362V90.5497H96.7472V92.0254H90.1362V96.3102H97.4842V97.7848L88.5534 97.7859ZM74.5437 97.7859V85.2155H76.9204L79.7543 94.1156C80.0169 94.9443 80.2076 95.5649 80.3265 95.9774C80.4647 95.5207 80.6786 94.8486 80.9681 93.9612L83.8528 85.2155H85.9756V97.7892H84.4498V87.2708L80.9525 97.7892H79.5242L76.0643 87.0773V97.7892L74.5437 97.7859ZM67.3999 97.7859V86.6869H63.4496V85.2111H72.9391V86.6869H68.9899V97.7794L67.3999 97.7859ZM54.183 90.765H57.586C58.16 90.7876 58.7334 90.7074 59.2817 90.5279C59.6634 90.3941 59.9902 90.1279 60.2084 89.7732C60.4174 89.4381 60.5281 89.0459 60.5266 88.6455C60.5337 88.3684 60.4824 88.0932 60.3763 87.8394C60.2702 87.5856 60.112 87.3595 59.913 87.1773C59.3533 86.7452 58.663 86.5411 57.9705 86.6031H54.183V90.765ZM52.592 97.7892V85.2155H57.9042C58.7285 85.1785 59.5527 85.2937 60.339 85.5558C60.8989 85.785 61.3681 86.2068 61.6699 86.7521C62.001 87.322 62.1731 87.978 62.1664 88.6455C62.1852 89.4831 61.8871 90.2944 61.3372 90.902C60.6401 91.5842 59.7413 91.9952 58.7904 92.0667C59.1353 92.2284 59.4572 92.4392 59.7471 92.6931C60.2513 93.1893 60.692 93.7519 61.0584 94.3668L63.1314 97.7914H61.1506L59.573 95.1694C59.1138 94.4081 58.7313 93.835 58.4328 93.4294C58.2078 93.1068 57.9356 92.8234 57.6264 92.5898C57.4038 92.4371 57.1586 92.3243 56.9008 92.256C56.6091 92.2087 56.3139 92.1891 56.0187 92.1972H54.183V97.7816L52.592 97.7892ZM43.5296 92.6268H47.6135L46.3634 89.1403C45.9875 88.081 45.7011 87.206 45.5041 86.515C45.3387 87.3374 45.1177 88.1464 44.8428 88.9358L43.5296 92.6268ZM40.0862 97.7892L44.6832 85.2155H46.4277L51.3056 97.7892H49.501L48.1152 93.9829H43.0662L41.7664 97.7892H40.0862ZM33.0678 91.1859H36.1639C36.9366 91.2631 37.7103 91.0508 38.3479 90.5866C38.5673 90.3716 38.7388 90.1085 38.8502 89.816C38.9617 89.5236 39.0103 89.2089 38.9927 88.8945C39.0055 88.4138 38.8727 87.9413 38.6133 87.5449C38.3736 87.181 38.0189 86.9179 37.612 86.8021C37.1245 86.7102 36.6289 86.6737 36.1339 86.6934H33.0658L33.0678 91.1859ZM31.4778 97.7892V85.2155H36.0023C36.6125 85.2026 37.2227 85.2429 37.8266 85.3362C38.3552 85.4147 38.861 85.6145 39.3078 85.9213C39.7231 86.231 40.0549 86.6484 40.2707 87.1327C40.5896 87.8519 40.7017 88.653 40.5933 89.438C40.4848 90.223 40.1606 90.9578 39.6602 91.5524C39.1757 91.9771 38.6141 92.2944 38.0095 92.4851C37.4048 92.6757 36.7696 92.7358 36.1422 92.6616H33.0658V97.7892H31.4778ZM22.4475 92.6268H26.5314L25.2814 89.1403C24.9051 88.081 24.6211 87.2056 24.4231 86.515C24.2572 87.3373 24.0363 88.1462 23.7618 88.9358L22.4475 92.6268ZM19 97.7892L23.597 85.2155H25.3405L30.2194 97.7892H28.4128L27.0259 93.9829H21.98L20.6802 97.7892H19Z" fill="white"/>
</svg>
