<svg width="90" height="90" viewBox="0 0 90 90" fill="none" xmlns="http://www.w3.org/2000/svg">
<g clip-path="url(#clip0)">
<path d="M82.4435 81.2105H79.8483V38.9928L82.44 41.0248C83.2548 41.6685 84.2626 42.0189 85.301 42.0197C85.5027 42.0195 85.7043 42.0064 85.9043 41.9803C86.5204 41.9018 87.1145 41.7005 87.6515 41.3883C88.1884 41.0761 88.6573 40.6593 89.0304 40.1628C89.7837 39.1637 90.1166 37.9098 89.9582 36.6687C89.7998 35.4275 89.1625 34.2974 88.1824 33.5196L73.916 22.3343V1.22793C73.9156 0.901896 73.7858 0.589355 73.5551 0.359013C73.3243 0.128671 73.0116 -0.000617967 72.6855 -0.000431343H64.7754C64.6138 -0.000523773 64.4537 0.0312401 64.3044 0.0930442C64.1551 0.154848 64.0194 0.24548 63.9051 0.359758C63.7908 0.474036 63.7002 0.609719 63.6384 0.759048C63.5766 0.908377 63.5448 1.06842 63.5449 1.23004V14.2027L45.7594 0.259725C45.5428 0.0895673 45.2754 -0.00292969 45 -0.00292969C44.7246 -0.00292969 44.4572 0.0895673 44.2406 0.259725L1.81758 33.5203C0.8377 34.2981 0.200575 35.4281 0.0421529 36.669C-0.116269 37.91 0.216556 39.1638 0.969611 40.1628C1.34168 40.6574 1.80873 41.0728 2.34339 41.3846C2.87805 41.6964 3.46957 41.8984 4.08329 41.9787C4.69701 42.059 5.32057 42.0159 5.91745 41.8521C6.51433 41.6884 7.07252 41.4071 7.5593 41.0248L10.151 38.9928V81.2105H7.55649C5.55307 81.2127 3.63234 82.0096 2.21571 83.4262C0.79908 84.8428 0.00223507 86.7636 1.8082e-06 88.767C-0.000275503 88.9287 0.0313469 89.089 0.0930596 89.2385C0.154772 89.388 0.245364 89.5239 0.359651 89.6384C0.473938 89.7529 0.609678 89.8437 0.759103 89.9057C0.908528 89.9677 1.06871 89.9996 1.23047 89.9996H88.7695C88.9311 89.9996 89.0912 89.9679 89.2405 89.9061C89.3899 89.8443 89.5255 89.7536 89.6398 89.6394C89.7541 89.5251 89.8447 89.3894 89.9065 89.2401C89.9683 89.0907 90.0001 88.9307 90 88.7691C89.9983 86.7653 89.2017 84.844 87.785 83.4269C86.3683 82.0099 84.4473 81.2127 82.4435 81.2105ZM66.0059 16.1328V2.46051H71.4551V20.405L68.9119 18.4109L66.0059 16.1328ZM6.04125 39.0884C5.81354 39.2689 5.55185 39.4019 5.27174 39.4793C4.99164 39.5567 4.69882 39.5771 4.4107 39.5391C4.11934 39.5013 3.83852 39.4054 3.58489 39.2571C3.33127 39.1087 3.10998 38.911 2.93414 38.6757C2.56776 38.1925 2.40507 37.5851 2.4809 36.9835C2.55672 36.3819 2.86503 35.8339 3.33985 35.4567L45 2.79168L69.8027 22.2373L71.9262 23.9016L86.6637 35.456C87.1386 35.8333 87.4469 36.3815 87.5226 36.9833C87.5983 37.585 87.4353 38.1925 87.0687 38.6757C86.894 38.9102 86.6741 39.1073 86.422 39.2554C86.1699 39.4036 85.8907 39.4997 85.6008 39.5382C85.3109 39.5767 85.0163 39.5567 84.7343 39.4794C84.4522 39.4022 84.1885 39.2692 83.9587 39.0884L45.7594 9.14019C45.5428 8.97003 45.2754 8.87754 45 8.87754C44.7246 8.87754 44.4572 8.97003 44.2406 9.14019L6.04125 39.0884ZM12.612 37.0634L45 11.6714L77.3873 37.0648V81.2105H12.612V37.0634ZM2.6107 87.5386C2.88655 86.4352 3.52293 85.4555 4.4189 84.7549C5.31488 84.0544 6.41913 83.673 7.55649 83.6714H82.4435C83.5808 83.6731 84.6849 84.0544 85.5808 84.755C86.4766 85.4556 87.1129 86.4353 87.3886 87.5386H2.6107Z" fill="white"/>
<mask id="path-2-inside-1" fill="white">
<rect x="17" y="42" width="56" height="25" rx="2"/>
</mask>
<rect x="17" y="42" width="56" height="25" rx="2" stroke="white" stroke-width="6" mask="url(#path-2-inside-1)"/>
<path d="M27.579 59C27.4857 59 27.4017 58.9673 27.327 58.902C27.2617 58.8273 27.229 58.7433 27.229 58.65V49.55C27.229 49.4473 27.2617 49.3633 27.327 49.298C27.4017 49.2327 27.4857 49.2 27.579 49.2H31.387C32.6097 49.2 33.5617 49.48 34.243 50.04C34.9337 50.5907 35.279 51.3747 35.279 52.392C35.279 53.0453 35.125 53.6007 34.817 54.058C34.509 54.5153 34.0844 54.8653 33.543 55.108L35.461 58.552C35.489 58.608 35.503 58.6593 35.503 58.706C35.503 58.7807 35.4704 58.8507 35.405 58.916C35.349 58.972 35.2837 59 35.209 59H33.347C33.0764 59 32.885 58.874 32.773 58.622L31.177 55.542H29.749V58.65C29.749 58.7527 29.7117 58.8367 29.637 58.902C29.5717 58.9673 29.4877 59 29.385 59H27.579ZM31.359 53.554C31.7884 53.554 32.115 53.4513 32.339 53.246C32.563 53.0313 32.675 52.7373 32.675 52.364C32.675 51.9907 32.563 51.6967 32.339 51.482C32.1244 51.258 31.7977 51.146 31.359 51.146H29.749V53.554H31.359ZM37.2587 59C37.1654 59 37.0814 58.9673 37.0067 58.902C36.9414 58.8273 36.9087 58.7433 36.9087 58.65V49.55C36.9087 49.4473 36.9414 49.3633 37.0067 49.298C37.0814 49.2327 37.1654 49.2 37.2587 49.2H43.7967C43.8994 49.2 43.9834 49.2327 44.0487 49.298C44.114 49.3633 44.1467 49.4473 44.1467 49.55V50.866C44.1467 50.9593 44.114 51.0433 44.0487 51.118C43.9834 51.1833 43.8994 51.216 43.7967 51.216H39.3307V53.106H43.4887C43.5914 53.106 43.6754 53.1433 43.7407 53.218C43.806 53.2833 43.8387 53.3673 43.8387 53.47V54.688C43.8387 54.7813 43.806 54.8653 43.7407 54.94C43.6754 55.0053 43.5914 55.038 43.4887 55.038H39.3307V56.984H43.9087C44.0114 56.984 44.0954 57.0167 44.1607 57.082C44.226 57.1473 44.2587 57.2313 44.2587 57.334V58.65C44.2587 58.7433 44.226 58.8273 44.1607 58.902C44.0954 58.9673 44.0114 59 43.9087 59H37.2587ZM46.2001 59C46.1068 59 46.0228 58.9673 45.9481 58.902C45.8828 58.8273 45.8501 58.7433 45.8501 58.65V49.55C45.8501 49.4473 45.8828 49.3633 45.9481 49.298C46.0228 49.2327 46.1068 49.2 46.2001 49.2H47.6841C47.9175 49.2 48.0761 49.2887 48.1601 49.466L51.5761 54.842V49.55C51.5761 49.4473 51.6088 49.3633 51.6741 49.298C51.7488 49.2327 51.8328 49.2 51.9261 49.2H53.6061C53.7088 49.2 53.7928 49.2327 53.8581 49.298C53.9235 49.3633 53.9561 49.4473 53.9561 49.55V58.636C53.9561 58.7387 53.9235 58.8273 53.8581 58.902C53.7928 58.9673 53.7088 59 53.6061 59H52.1081C51.9028 59 51.7488 58.9113 51.6461 58.734L48.2301 53.554V58.65C48.2301 58.7433 48.1975 58.8273 48.1321 58.902C48.0668 58.9673 47.9828 59 47.8801 59H46.2001ZM58.4186 59C58.3253 59 58.2413 58.9673 58.1666 58.902C58.1013 58.8273 58.0686 58.7433 58.0686 58.65V51.398H55.5766C55.4833 51.398 55.3993 51.3653 55.3246 51.3C55.2593 51.2253 55.2266 51.1413 55.2266 51.048V49.55C55.2266 49.4473 55.2593 49.3633 55.3246 49.298C55.3993 49.2327 55.4833 49.2 55.5766 49.2H63.1086C63.2113 49.2 63.2953 49.2327 63.3606 49.298C63.426 49.3633 63.4586 49.4473 63.4586 49.55V51.048C63.4586 51.1507 63.426 51.2347 63.3606 51.3C63.2953 51.3653 63.2113 51.398 63.1086 51.398H60.6166V58.65C60.6166 58.7433 60.584 58.8273 60.5186 58.902C60.4533 58.9673 60.3693 59 60.2666 59H58.4186Z" fill="white"/>
</g>
<defs>
<clipPath id="clip0">
<rect width="90" height="90" fill="white"/>
</clipPath>
</defs>
</svg>
