<svg width="90" height="90" viewBox="0 0 90 90" fill="none" xmlns="http://www.w3.org/2000/svg">
<path d="M84.6387 42.4268L71.8967 40.0207C71.7684 39.9979 71.6444 39.9557 71.5289 39.8955C71.2119 39.7402 70.9489 39.4933 70.7738 39.1868L63.488 27.176C63.1299 26.5622 62.6188 26.0518 62.0046 25.6944C61.3905 25.337 60.6941 25.145 59.9836 25.1369H52.5586V17.0088C52.5584 16.6825 52.4287 16.3696 52.198 16.1389C51.9673 15.9082 51.6544 15.7785 51.3281 15.7783H27.9774C27.0953 15.7783 26.2265 15.9922 25.4453 16.4017C24.6641 16.8113 23.9939 17.4042 23.4921 18.1296L4.31439 45.8489C3.67732 46.7579 3.33693 47.8417 3.33986 48.9518V63.8299C3.34005 64.1562 3.46975 64.469 3.70046 64.6997C3.93118 64.9305 4.24405 65.0602 4.57033 65.0603H16.5382C16.8344 67.2973 17.9333 69.3505 19.6304 70.8377C21.3274 72.3249 23.5071 73.1448 25.7636 73.1448C28.0201 73.1448 30.1997 72.3249 31.8968 70.8377C33.5939 69.3505 34.6927 67.2973 34.9889 65.0603H61.1719C61.4675 67.2979 62.5662 69.3517 64.2634 70.8395C65.9606 72.3272 68.1406 73.1474 70.3976 73.1474C72.6546 73.1474 74.8346 72.3272 76.5318 70.8395C78.229 69.3517 79.3277 67.2979 79.6233 65.0603H85.4297C85.756 65.0602 86.0689 64.9305 86.2996 64.6997C86.5303 64.469 86.66 64.1562 86.6602 63.8299V44.9369C86.6778 44.3462 86.4838 43.7687 86.1131 43.3084C85.7425 42.8481 85.2196 42.5355 84.6387 42.4268ZM59.9836 27.5979C60.2708 27.6083 60.5504 27.6926 60.7955 27.8426C61.0406 27.9926 61.2429 28.2033 61.3828 28.4543L68.2573 39.783H52.5586V27.5979H59.9836ZM5.8008 48.9518C5.79919 48.3445 5.98561 47.7515 6.33447 47.2544L25.5164 19.5295C25.7917 19.1314 26.1594 18.8061 26.588 18.5813C27.0166 18.3566 27.4934 18.2392 27.9774 18.2393H50.0977V62.5994H34.9889C34.6933 60.3619 33.5946 58.3081 31.8974 56.8203C30.2002 55.3326 28.0202 54.5123 25.7632 54.5123C23.5063 54.5123 21.3262 55.3326 19.629 56.8203C17.9318 58.3081 16.8331 60.3619 16.5375 62.5994H5.8008V48.9518ZM25.7632 70.6846C24.4075 70.6846 23.0823 70.2827 21.955 69.5296C20.8277 68.7765 19.949 67.7061 19.43 66.4536C18.911 65.2012 18.775 63.823 19.0392 62.4933C19.3034 61.1636 19.9559 59.942 20.9142 58.9831C21.8725 58.0242 23.0937 57.371 24.4232 57.106C25.7528 56.841 27.131 56.9761 28.3838 57.4943C29.6365 58.0126 30.7075 58.8906 31.4613 60.0174C32.2151 61.1442 32.6179 62.4693 32.6187 63.825V63.8341C32.6153 65.6508 31.8918 67.3921 30.6068 68.6762C29.3217 69.9604 27.5799 70.6826 25.7632 70.6846ZM70.3983 70.6846C69.0427 70.6848 67.7176 70.2831 66.5903 69.5302C65.463 68.7774 64.5842 67.7073 64.065 66.4551C63.5458 65.2029 63.4094 63.8249 63.6732 62.4953C63.9369 61.1656 64.5889 59.944 65.5468 58.9849C66.5047 58.0257 67.7254 57.372 69.0547 57.1065C70.384 56.841 71.7622 56.9755 73.0151 57.4931C74.2679 58.0106 75.3392 58.888 76.0936 60.0143C76.8479 61.1406 77.2514 62.4652 77.2531 63.8207V63.8383C77.2488 65.6542 76.525 67.3944 75.2401 68.6777C73.9553 69.9609 72.2142 70.6826 70.3983 70.6846ZM84.1992 62.5987H79.624C79.3289 60.3607 78.2304 58.3062 76.533 56.8179C74.8356 55.3297 72.6551 54.5092 70.3976 54.5093C68.1402 54.5094 65.9598 55.3301 64.2625 56.8184C62.5652 58.3068 61.4668 60.3613 61.1719 62.5994H52.5586V42.2439H70.7787C70.9952 42.3304 71.2193 42.3963 71.4481 42.4408L84.1746 44.8314C84.1956 44.8629 84.2055 44.9006 84.2028 44.9383L84.1992 62.5987Z" fill="white"/>
<path d="M33.629 22.46H44.3552C44.6815 22.46 44.9945 22.3303 45.2253 22.0996C45.456 21.8688 45.5857 21.5558 45.5857 21.2295C45.5857 20.9032 45.456 20.5902 45.2253 20.3594C44.9945 20.1287 44.6815 19.999 44.3552 19.999H33.629C33.3027 19.999 32.9897 20.1287 32.759 20.3594C32.5282 20.5902 32.3986 20.9032 32.3986 21.2295C32.3986 21.5558 32.5282 21.8688 32.759 22.0996C32.9897 22.3303 33.3027 22.46 33.629 22.46Z" fill="white"/>
<path d="M70.3982 58.7314C69.39 58.7314 68.4044 59.0304 67.5661 59.5906C66.7278 60.1507 66.0744 60.9468 65.6886 61.8783C65.3027 62.8098 65.2018 63.8347 65.3985 64.8236C65.5952 65.8124 66.0807 66.7208 66.7936 67.4337C67.5065 68.1466 68.4148 68.6321 69.4037 68.8288C70.3925 69.0255 71.4175 68.9245 72.349 68.5387C73.2805 68.1529 74.0766 67.4995 74.6367 66.6612C75.1969 65.8229 75.4958 64.8373 75.4958 63.8291C75.4942 62.4776 74.9566 61.182 74.0009 60.2264C73.0453 59.2707 71.7497 58.7331 70.3982 58.7314ZM70.3982 66.4658C69.8767 66.4658 69.3669 66.3112 68.9333 66.0214C68.4997 65.7317 68.1618 65.3199 67.9622 64.8381C67.7626 64.3563 67.7104 63.8262 67.8121 63.3147C67.9139 62.8032 68.165 62.3334 68.5338 61.9647C68.9025 61.5959 69.3723 61.3448 69.8838 61.243C70.3953 61.1413 70.9254 61.1935 71.4072 61.3931C71.889 61.5927 72.3008 61.9306 72.5905 62.3642C72.8803 62.7978 73.0349 63.3076 73.0349 63.8291C73.0342 64.5282 72.7561 65.1984 72.2618 65.6927C71.7675 66.187 71.0973 66.4651 70.3982 66.4658Z" fill="white"/>
<path d="M25.7632 58.7314C24.755 58.7314 23.7694 59.0304 22.9311 59.5906C22.0928 60.1507 21.4394 60.9468 21.0536 61.8783C20.6677 62.8098 20.5668 63.8347 20.7635 64.8236C20.9602 65.8124 21.4457 66.7208 22.1586 67.4337C22.8715 68.1466 23.7798 68.6321 24.7687 68.8288C25.7575 69.0255 26.7825 68.9245 27.714 68.5387C28.6454 68.1529 29.4416 67.4995 30.0017 66.6612C30.5619 65.8229 30.8608 64.8373 30.8608 63.8291C30.8592 62.4776 30.3216 61.182 29.3659 60.2264C28.4103 59.2707 27.1147 58.7331 25.7632 58.7314ZM25.7632 66.4658C25.2417 66.4658 24.7319 66.3112 24.2983 66.0214C23.8647 65.7317 23.5267 65.3199 23.3272 64.8381C23.1276 64.3563 23.0754 63.8262 23.1771 63.3147C23.2789 62.8032 23.53 62.3334 23.8987 61.9647C24.2675 61.5959 24.7373 61.3448 25.2488 61.243C25.7603 61.1413 26.2904 61.1935 26.7722 61.3931C27.254 61.5927 27.6658 61.9306 27.9555 62.3642C28.2453 62.7978 28.3999 63.3076 28.3999 63.8291C28.3992 64.5282 28.1211 65.1984 27.6268 65.6927C27.1325 66.187 26.4623 66.4651 25.7632 66.4658Z" fill="white"/>
<path d="M39.2674 40.4713C39.0993 40.1999 38.8324 40.0045 38.5229 39.9262C38.2135 39.848 37.8857 39.893 37.6088 40.0519C37.332 40.2108 37.1277 40.471 37.0391 40.7777C36.9505 41.0843 36.9846 41.4134 37.1341 41.6954L37.6495 42.5926C37.7273 42.7256 37.7685 42.8768 37.7691 43.0309C37.7697 43.185 37.7296 43.3365 37.6528 43.4701C37.576 43.6037 37.4653 43.7146 37.3319 43.7917C37.1984 43.8687 37.047 43.9091 36.8929 43.9089H33.3885L34.155 43.0194C34.3552 42.7705 34.4508 42.4535 34.4216 42.1354C34.3925 41.8173 34.2408 41.5229 33.9987 41.3146C33.7565 41.1062 33.4429 41.0001 33.124 41.0187C32.8051 41.0373 32.5059 41.1791 32.2896 41.4142L29.7703 44.3413C29.7548 44.3596 29.7435 44.3814 29.7288 44.4004C29.7056 44.4313 29.6831 44.4615 29.6627 44.4946C29.6398 44.5319 29.6189 44.5704 29.6001 44.6099C29.5853 44.6401 29.5713 44.6711 29.5593 44.7027C29.5415 44.7486 29.5267 44.7955 29.515 44.8433C29.508 44.8715 29.5017 44.8989 29.4967 44.927C29.4867 44.9834 29.4808 45.0406 29.4792 45.0979C29.4792 45.1126 29.475 45.126 29.475 45.1408C29.475 45.1555 29.475 45.1576 29.475 45.1668C29.475 45.19 29.4714 45.2118 29.475 45.2371C29.4785 45.2765 29.489 45.313 29.4953 45.3517C29.4953 45.3721 29.5017 45.3918 29.5059 45.4122C29.5196 45.4723 29.5379 45.5313 29.5607 45.5886C29.5671 45.6048 29.5727 45.6217 29.5797 45.6379C29.6059 45.6959 29.6364 45.7518 29.6711 45.8052C29.6789 45.8179 29.6859 45.8305 29.6943 45.8425C29.7314 45.8951 29.7723 45.9449 29.8167 45.9915C29.8272 46.0021 29.8371 46.0133 29.8476 46.0232C29.8582 46.033 29.8807 46.0611 29.8996 46.078L32.8253 48.5966C32.9472 48.7058 33.0897 48.7896 33.2443 48.8431C33.399 48.8966 33.5627 48.9187 33.726 48.9081C33.8893 48.8975 34.0489 48.8544 34.1953 48.7814C34.3418 48.7084 34.4722 48.607 34.579 48.4829C34.6857 48.3589 34.7667 48.2149 34.8171 48.0592C34.8675 47.9035 34.8863 47.7393 34.8725 47.5763C34.8587 47.4132 34.8125 47.2546 34.7366 47.1096C34.6607 46.9646 34.5567 46.8362 34.4306 46.7319L34.0143 46.3733H36.8929C37.479 46.3736 38.0548 46.2194 38.5623 45.9264C39.0698 45.6333 39.4912 45.2117 39.784 44.704C40.0767 44.1963 40.2306 43.6205 40.23 43.0344C40.2294 42.4484 40.0744 41.8728 39.7807 41.3657L39.2674 40.4713Z" fill="white"/>
<path d="M29.2198 34.4443C29.3598 34.525 29.5143 34.5774 29.6746 34.5984C29.8349 34.6193 29.9977 34.6085 30.1537 34.5665C30.3098 34.5246 30.4561 34.4522 30.5842 34.3537C30.7123 34.2551 30.8197 34.1322 30.9003 33.9921L31.0339 33.7594C31.1107 33.6264 31.2212 33.516 31.3543 33.4392C31.4873 33.3624 31.6382 33.322 31.7918 33.322C31.9454 33.322 32.0964 33.3624 32.2294 33.4392C32.3625 33.516 32.4729 33.6264 32.5498 33.7594L33.125 34.7593C33.139 34.7888 33.1538 34.8176 33.17 34.8457L33.672 35.7127L32.8205 35.4884C32.5069 35.4108 32.1753 35.4598 31.8975 35.6246C31.6196 35.7894 31.4177 36.0569 31.3353 36.3693C31.253 36.6817 31.2968 37.0139 31.4573 37.2943C31.6179 37.5747 31.8822 37.7806 32.1933 37.8678L35.9269 38.8521C36.0831 38.8934 36.246 38.9035 36.4061 38.8818C36.5662 38.8601 36.7205 38.807 36.8601 38.7256C36.9997 38.6443 37.1219 38.5362 37.2197 38.4076C37.3176 38.279 37.3891 38.1323 37.4302 37.9761L38.4146 34.2425C38.4557 34.0862 38.4657 33.9233 38.4439 33.7632C38.4221 33.6031 38.3689 33.4488 38.2875 33.3092C38.2061 33.1696 38.098 33.0474 37.9693 32.9496C37.8407 32.8518 37.694 32.7803 37.5378 32.7392C37.3815 32.698 37.2186 32.6881 37.0585 32.7099C36.8984 32.7317 36.7441 32.7848 36.6045 32.8662C36.4649 32.9477 36.3428 33.0558 36.2449 33.1844C36.1471 33.3131 36.0756 33.4597 36.0345 33.616L35.8053 34.485L35.3447 33.6891C35.3321 33.6624 35.318 33.635 35.3025 33.6089L34.6838 32.5339C34.3913 32.0258 33.9701 31.6037 33.4626 31.3103C32.955 31.0168 32.3791 30.8623 31.7929 30.8623C31.2066 30.8623 30.6307 31.0168 30.1232 31.3103C29.6157 31.6037 29.1945 32.0258 28.902 32.5339L28.7684 32.7659C28.6059 33.0484 28.5622 33.3838 28.6468 33.6985C28.7315 34.0132 28.9375 34.2814 29.2198 34.4443Z" fill="white"/>
<path d="M25.0594 39.084L25.1347 39.0509L24.6797 39.8448C24.6636 39.8687 24.6488 39.8926 24.6347 39.9151L23.8086 41.3579C23.5142 41.8648 23.3585 42.4403 23.3573 43.0265C23.3561 43.6127 23.5093 44.1888 23.8016 44.6969C24.0939 45.2051 24.5149 45.6272 25.0222 45.9209C25.5295 46.2145 26.1052 46.3694 26.6914 46.3698H27.0008C27.3271 46.3698 27.6401 46.2401 27.8708 46.0094C28.1016 45.7786 28.2312 45.4656 28.2312 45.1393C28.2312 44.813 28.1016 44.5 27.8708 44.2692C27.6401 44.0385 27.3271 43.9088 27.0008 43.9088H26.6914C26.5367 43.9091 26.3846 43.8684 26.2508 43.7908C26.1169 43.7131 26.0061 43.6014 25.9295 43.4669C25.853 43.3325 25.8135 43.1801 25.815 43.0254C25.8166 42.8707 25.8591 42.7192 25.9383 42.5863L26.7315 41.2032C26.7455 41.1821 26.7589 41.1603 26.7722 41.1385L27.9458 39.1065L28.5301 40.4248C28.5955 40.5726 28.6894 40.706 28.8065 40.8174C28.9235 40.9289 29.0613 41.0162 29.2121 41.0743C29.3628 41.1325 29.5236 41.1604 29.6851 41.1565C29.8467 41.1525 30.0058 41.1168 30.1536 41.0513C30.3013 40.9859 30.4347 40.8919 30.5461 40.7749C30.6576 40.6579 30.7449 40.5201 30.8031 40.3693C30.8612 40.2186 30.8891 40.0578 30.8852 39.8963C30.8813 39.7347 30.8455 39.5756 30.7801 39.4278L29.2163 35.8981C29.2128 35.8904 29.2072 35.8841 29.2037 35.8763C29.1849 35.8386 29.164 35.802 29.1411 35.7666C29.1214 35.7329 29.1031 35.6963 29.0806 35.6668C29.0581 35.6373 29.0321 35.6112 29.0103 35.5831C28.9885 35.555 28.9533 35.517 28.9217 35.4875C28.8901 35.458 28.869 35.4467 28.8422 35.4263C28.8053 35.3966 28.7668 35.3689 28.7269 35.3434C28.7199 35.3391 28.715 35.3342 28.7087 35.33C28.6826 35.3152 28.6545 35.3068 28.6285 35.2941C28.5901 35.2743 28.5506 35.2565 28.5104 35.2407C28.4696 35.2259 28.4288 35.2168 28.388 35.2062C28.3472 35.1957 28.3177 35.188 28.2812 35.1823C28.2369 35.1764 28.1923 35.1728 28.1476 35.1718C28.1131 35.1718 28.0772 35.1676 28.0442 35.1718C27.9971 35.1747 27.9501 35.1801 27.9036 35.188C27.8719 35.1929 27.8403 35.1964 27.8087 35.2041C27.7553 35.2177 27.7029 35.2349 27.6519 35.2555C27.6329 35.2625 27.6132 35.266 27.5949 35.2745L27.5576 35.2906H27.5506L24.0645 36.8375C23.7661 36.9697 23.5325 37.215 23.415 37.5195C23.2975 37.824 23.3058 38.1626 23.438 38.461C23.5702 38.7594 23.8156 38.993 24.12 39.1105C24.4245 39.228 24.7632 39.2197 25.0615 39.0875L25.0594 39.084Z" fill="white"/>
<path d="M60.4688 43.5938H56.25C55.9237 43.5938 55.6107 43.7234 55.3799 43.9541C55.1492 44.1849 55.0195 44.4979 55.0195 44.8242C55.0195 45.1506 55.1492 45.4635 55.3799 45.6943C55.6107 45.925 55.9237 46.0547 56.25 46.0547H60.4688C60.7951 46.0547 61.1081 45.925 61.3388 45.6943C61.5696 45.4635 61.6992 45.1506 61.6992 44.8242C61.6992 44.4979 61.5696 44.1849 61.3388 43.9541C61.1081 43.7234 60.7951 43.5938 60.4688 43.5938Z" fill="white"/>
</svg>
