<svg width="90" height="90" viewBox="0 0 90 90" fill="none" xmlns="http://www.w3.org/2000/svg">
<path d="M61.6289 59.2383H61.6451C61.9687 59.2381 62.2793 59.1105 62.5096 58.8832C62.7398 58.6558 62.8713 58.3469 62.8756 58.0233C62.8988 56.2169 63.0211 54.3044 63.2384 52.3385C63.2598 52.1762 63.2486 52.0112 63.2054 51.8532C63.1622 51.6953 63.0879 51.5476 62.9869 51.4187C62.8859 51.2898 62.7602 51.1824 62.6172 51.1027C62.4741 51.0231 62.3166 50.9728 62.1539 50.9547C61.9911 50.9367 61.8264 50.9514 61.6694 50.9978C61.5124 51.0443 61.3662 51.1216 61.2395 51.2253C61.1127 51.3289 61.0079 51.4568 60.9313 51.6015C60.8546 51.7462 60.8076 51.9047 60.7929 52.0678C60.5665 54.1125 60.4414 56.1058 60.4146 57.9923C60.4105 58.3186 60.5361 58.6331 60.7638 58.8667C60.9915 59.1004 61.3027 59.234 61.6289 59.2383Z" fill="white"/>
<path d="M85.4297 84.1992H69.8414V71.775C73.7859 71.0719 76.8164 68.3782 76.8164 58.6596C76.8164 48.4748 73.1763 28.6523 66.5037 28.6523C65.2303 28.6523 64.0687 29.378 63.0204 30.6169C61.0228 22.4423 58.5738 18.2812 55.7227 18.2812C54.6054 18.2812 51.2051 18.2812 48.1008 31.9669C46.39 39.7245 45.4875 47.6384 45.4078 55.582C45.4078 66.7793 47.9194 70.638 52.3828 71.6836V84.1992H38.4961V79.1599H40.4297C40.756 79.1599 41.069 79.0303 41.2998 78.7995C41.5305 78.5688 41.6602 78.2558 41.6602 77.9295C41.6602 77.6031 41.5305 77.2901 41.2998 77.0594C41.069 76.8286 40.756 76.699 40.4297 76.699H38.4961V67.8516C38.4961 67.5252 38.3665 67.2122 38.1357 66.9815C37.9049 66.7507 37.592 66.6211 37.2656 66.6211C36.9393 66.6211 36.6263 66.7507 36.3955 66.9815C36.1648 67.2122 36.0352 67.5252 36.0352 67.8516V69.551H13.5352V67.8516C13.5352 67.5252 13.4055 67.2122 13.1748 66.9815C12.944 66.7507 12.631 66.6211 12.3047 66.6211C11.9783 66.6211 11.6654 66.7507 11.4346 66.9815C11.2039 67.2122 11.0742 67.5252 11.0742 67.8516V76.699H9.14062C8.81428 76.699 8.50131 76.8286 8.27055 77.0594C8.03979 77.2901 7.91016 77.6031 7.91016 77.9295C7.91016 78.2558 8.03979 78.5688 8.27055 78.7995C8.50131 79.0303 8.81428 79.1599 9.14062 79.1599H11.0742V84.1992H4.57031C4.24397 84.1992 3.931 84.3289 3.70024 84.5596C3.46948 84.7904 3.33984 85.1033 3.33984 85.4297C3.33984 85.756 3.46948 86.069 3.70024 86.2998C3.931 86.5305 4.24397 86.6602 4.57031 86.6602H85.4297C85.756 86.6602 86.069 86.5305 86.2998 86.2998C86.5305 86.069 86.6602 85.756 86.6602 85.4297C86.6602 85.1033 86.5305 84.7904 86.2998 84.5596C86.069 84.3289 85.756 84.1992 85.4297 84.1992ZM66.5037 31.1133C69.9525 31.1133 74.3555 46.5602 74.3555 58.6596C74.3555 69.551 70.5417 69.551 66.5037 69.551C62.4656 69.551 58.6526 69.551 58.6526 58.6596C58.6526 46.5602 63.0555 31.1133 66.5037 31.1133ZM60.8906 71.0571C61.6095 71.4016 62.3734 71.643 63.1596 71.7743V84.1992H59.0625V71.7054C59.6967 71.5668 60.3108 71.349 60.8906 71.0571ZM47.8688 55.582C47.9471 47.8215 48.8291 40.0899 50.5005 32.5111C52.6127 23.2031 54.8395 20.7422 55.7227 20.7422C56.8209 20.7422 59.1595 24.1699 61.1684 33.5391C57.9164 40.0739 56.1916 51.6509 56.1916 58.6617C56.1916 64.1152 57.1465 67.3538 58.6807 69.2733C57.7099 69.4879 56.7165 69.5824 55.7227 69.5545C51.8618 69.5531 47.8688 69.5531 47.8688 55.582ZM13.5352 72.012H36.0352V76.699H13.5352V72.012ZM13.5352 79.1599H36.0352V84.1992H13.5352V79.1599ZM54.8438 84.1992V71.9937C55.1313 72.0063 55.4231 72.0141 55.7227 72.0141C56.0222 72.0141 56.3077 72.0084 56.6016 71.9986V84.1992H54.8438ZM65.6227 84.1992V72C65.9147 72.007 66.2084 72.0108 66.5037 72.0112C66.799 72.0117 67.0913 72.008 67.3805 72V84.1992H65.6227Z" fill="white"/>
<path d="M15.7985 18.402H26.2828C27.4952 18.4019 28.6647 17.9534 29.5662 17.1427C30.4677 16.3321 31.0376 15.2167 31.1661 14.0111C31.2945 12.8056 30.9726 11.5951 30.2621 10.6127C29.5517 9.63027 28.503 8.94536 27.3178 8.68975C26.9822 7.42227 26.2382 6.30068 25.2011 5.49844C24.164 4.6962 22.8915 4.25801 21.5803 4.25163C21.1787 4.25151 20.7782 4.29274 20.385 4.37467C19.6454 3.85454 18.7924 3.51832 17.8967 3.39391C17.0011 3.26951 16.0888 3.36051 15.2354 3.65937C14.382 3.95822 13.6122 4.45631 12.9899 5.11229C12.3675 5.76827 11.9107 6.56322 11.6571 7.43116C10.7013 8.27246 10.0245 9.38501 9.71686 10.6206C9.40922 11.8562 9.48537 13.1563 9.93514 14.3475C10.3849 15.5388 11.187 16.5647 12.2345 17.2887C13.282 18.0126 14.5252 18.4003 15.7985 18.3999V18.402ZM13.5 9.10389C13.7365 8.9242 13.8998 8.66492 13.9599 8.37405C14.0747 7.81721 14.3347 7.30063 14.7136 6.87669C15.0924 6.45274 15.5766 6.1365 16.1171 5.96003C16.6576 5.78356 17.2351 5.75313 17.7911 5.87183C18.3471 5.99053 18.8619 6.25414 19.2832 6.63592C19.4446 6.78137 19.6417 6.88152 19.8543 6.92622C20.067 6.97092 20.2877 6.95858 20.494 6.89046C20.9931 6.72401 21.5235 6.67353 22.045 6.74283C22.5666 6.81212 23.0654 6.99939 23.5037 7.29039C23.942 7.58139 24.3082 7.96846 24.5745 8.42221C24.8408 8.87595 25.0001 9.38442 25.0404 9.90897C25.0677 10.2271 25.2169 10.5223 25.4568 10.7329C25.6968 10.9435 26.0089 11.0531 26.3278 11.0389C26.9775 11.0449 27.5982 11.3087 28.0534 11.7723C28.5086 12.2359 28.761 12.8614 28.755 13.5111C28.749 14.1608 28.4852 14.7815 28.0216 15.2367C27.558 15.6919 26.9325 15.9442 26.2828 15.9383H15.7985C15.0022 15.9377 14.2261 15.6873 13.5797 15.2223C12.9332 14.7573 12.4489 14.1012 12.1951 13.3465C11.9412 12.5917 11.9306 11.7763 12.1647 11.0152C12.3988 10.254 12.8659 9.58554 13.5 9.10389Z" fill="white"/>
<path d="M68.9062 19.8131H76.3931C77.6734 19.8118 78.9009 19.3027 79.8063 18.3975C80.7118 17.4924 81.2212 16.265 81.2229 14.9847C81.2251 14.3159 81.0869 13.654 80.8173 13.0419C80.5477 12.4298 80.1526 11.881 79.6577 11.4311C79.4521 10.7828 79.0994 10.1907 78.6271 9.70129C78.1547 9.21186 77.5756 8.8383 76.9349 8.60982C76.2943 8.38133 75.6094 8.30411 74.934 8.38419C74.2585 8.46427 73.6108 8.69948 73.0413 9.07144C71.9442 8.88222 70.8158 9.09905 69.867 9.68138C68.9182 10.2637 68.214 11.1717 67.886 12.2355C66.9872 12.4843 66.209 13.0503 65.6952 13.8286C65.1815 14.6069 64.967 15.545 65.0914 16.4692C65.2158 17.3935 65.6708 18.2414 66.3721 18.8561C67.0734 19.4709 67.9736 19.8108 68.9062 19.8131ZM68.8732 14.5551C69.1924 14.5732 69.5057 14.4641 69.7446 14.2516C69.9835 14.0392 70.1286 13.7408 70.1479 13.4217C70.1725 13.1004 70.2701 12.7889 70.4331 12.5109C70.5962 12.233 70.8204 11.9958 71.0888 11.8176C71.3573 11.6393 71.6628 11.5245 71.9823 11.4821C72.3017 11.4396 72.6266 11.4705 72.9323 11.5725C73.1387 11.6411 73.3596 11.6537 73.5725 11.609C73.7853 11.5642 73.9825 11.4638 74.1438 11.3179C74.3989 11.0869 74.7105 10.9275 75.0471 10.8558C75.3837 10.7841 75.7333 10.8028 76.0603 10.9099C76.3873 11.017 76.6802 11.2088 76.9092 11.4657C77.1382 11.7226 77.2951 12.0355 77.3641 12.3726C77.4241 12.6637 77.5875 12.9232 77.824 13.1032C78.2193 13.4023 78.5107 13.818 78.6569 14.2918C78.803 14.7655 78.7966 15.2732 78.6385 15.743C78.4804 16.2129 78.1786 16.6212 77.7758 16.9102C77.373 17.1992 76.8896 17.3543 76.3938 17.3535H68.9062C68.5401 17.351 68.1895 17.205 67.93 16.9468C67.6704 16.6885 67.5225 16.3388 67.5181 15.9726C67.5136 15.6065 67.653 15.2533 67.9063 14.9889C68.1596 14.7245 68.5065 14.57 68.8725 14.5586L68.8732 14.5551Z" fill="white"/>
<path d="M29.4482 23.9461C28.8788 23.574 28.2311 23.3386 27.5556 23.2583C26.8802 23.1781 26.1953 23.2552 25.5546 23.4835C24.9138 23.7119 24.3346 24.0853 23.8621 24.5747C23.3897 25.064 23.0368 25.656 22.8311 26.3044C22.1142 26.9616 21.6126 27.8201 21.392 28.7673C21.1715 29.7146 21.2424 30.7064 21.5953 31.6127C21.9483 32.5189 22.5668 33.2974 23.3699 33.846C24.173 34.3946 25.1231 34.6878 26.0957 34.687H33.5826C34.517 34.6874 35.4198 34.3486 36.1234 33.7337C36.827 33.1188 37.2835 32.2694 37.4083 31.3433C37.533 30.4172 37.3174 29.4774 36.8016 28.6982C36.2858 27.919 35.5048 27.3535 34.6035 27.1066C34.3096 26.1741 33.7272 25.359 32.9402 24.7788C32.1531 24.1986 31.2022 23.8834 30.2245 23.8786C29.9642 23.8786 29.7045 23.9011 29.4482 23.9461ZM32.3437 28.2984C32.3664 28.6159 32.5123 28.912 32.7501 29.1236C32.988 29.3352 33.299 29.4455 33.617 29.4312C33.983 29.4425 34.3299 29.597 34.5832 29.8614C34.8365 30.1258 34.9759 30.4791 34.9715 30.8452C34.967 31.2113 34.8191 31.5611 34.5596 31.8193C34.3 32.0775 33.9494 32.2236 33.5833 32.2261H26.0957C25.6 32.2268 25.1165 32.0717 24.7137 31.7827C24.3109 31.4937 24.0091 31.0854 23.851 30.6156C23.6929 30.1457 23.6865 29.638 23.8327 29.1643C23.9788 28.6906 24.2702 28.2748 24.6656 27.9757C24.9015 27.7956 25.0645 27.5365 25.1247 27.2458C25.1937 26.9086 25.3508 26.5955 25.5799 26.3386C25.809 26.0816 26.102 25.8898 26.4292 25.7827C26.7564 25.6756 27.1061 25.657 27.4428 25.7287C27.7795 25.8004 28.0913 25.96 28.3464 26.1912C28.5078 26.3369 28.705 26.4372 28.9178 26.4819C29.1306 26.5266 29.3515 26.5141 29.5579 26.4457C29.8639 26.3434 30.1893 26.3124 30.5092 26.355C30.829 26.3975 31.1349 26.5125 31.4036 26.6912C31.6723 26.8699 31.8966 27.1075 32.0596 27.3861C32.2225 27.6646 32.3196 27.9766 32.3437 28.2984Z" fill="white"/>
</svg>
