<svg width="90" height="90" viewBox="0 0 90 90" fill="none" xmlns="http://www.w3.org/2000/svg">
<g clip-path="url(#clip0)">
<path d="M82.4435 81.2105H79.8483V38.9928L82.44 41.0248C83.2548 41.6685 84.2627 42.0189 85.301 42.0197C85.5028 42.0195 85.7043 42.0064 85.9043 41.9803C86.5204 41.9018 87.1145 41.7005 87.6515 41.3883C88.1884 41.0761 88.6573 40.6593 89.0304 40.1628C89.7837 39.1637 90.1166 37.9098 89.9582 36.6687C89.7998 35.4275 89.1625 34.2974 88.1824 33.5196L73.916 22.3343V1.22793C73.9156 0.901896 73.7858 0.589355 73.5551 0.359013C73.3243 0.128671 73.0116 -0.000617967 72.6856 -0.000431343H64.7754C64.6138 -0.000523773 64.4537 0.0312401 64.3044 0.0930442C64.1551 0.154848 64.0194 0.24548 63.9051 0.359758C63.7908 0.474036 63.7002 0.609719 63.6384 0.759048C63.5766 0.908377 63.5448 1.06842 63.5449 1.23004V14.2027L45.7594 0.259725C45.5428 0.0895673 45.2754 -0.00292969 45 -0.00292969C44.7246 -0.00292969 44.4572 0.0895673 44.2406 0.259725L1.81758 33.5203C0.8377 34.2981 0.200575 35.4281 0.0421529 36.669C-0.116269 37.91 0.216556 39.1638 0.969611 40.1628C1.34168 40.6574 1.80873 41.0728 2.34339 41.3846C2.87805 41.6964 3.46957 41.8984 4.08329 41.9787C4.69701 42.059 5.32058 42.0159 5.91745 41.8521C6.51433 41.6884 7.07252 41.4071 7.5593 41.0248L10.151 38.9928V81.2105H7.55649C5.55307 81.2127 3.63234 82.0096 2.21571 83.4262C0.79908 84.8428 0.00223507 86.7636 1.8082e-06 88.767C-0.000275503 88.9287 0.0313469 89.089 0.0930596 89.2385C0.154772 89.388 0.245364 89.5239 0.359651 89.6384C0.473938 89.7529 0.609678 89.8437 0.759103 89.9057C0.908528 89.9677 1.06871 89.9996 1.23047 89.9996H88.7695C88.9312 89.9996 89.0912 89.9679 89.2405 89.9061C89.3899 89.8443 89.5255 89.7536 89.6398 89.6394C89.7541 89.5251 89.8447 89.3894 89.9065 89.2401C89.9683 89.0907 90.0001 88.9307 90 88.7691C89.9983 86.7653 89.2017 84.844 87.785 83.4269C86.3684 82.0099 84.4473 81.2127 82.4435 81.2105ZM66.0059 16.1328V2.46051H71.4551V20.405L68.9119 18.4109L66.0059 16.1328ZM6.04125 39.0884C5.81354 39.2689 5.55185 39.4019 5.27174 39.4793C4.99164 39.5567 4.69882 39.5771 4.41071 39.5391C4.11934 39.5013 3.83852 39.4054 3.5849 39.2571C3.33127 39.1087 3.10998 38.911 2.93414 38.6757C2.56776 38.1925 2.40507 37.5851 2.4809 36.9835C2.55672 36.3819 2.86504 35.8339 3.33985 35.4567L45 2.79168L69.8027 22.2373L71.9262 23.9016L86.6637 35.456C87.1386 35.8333 87.4469 36.3815 87.5226 36.9833C87.5983 37.585 87.4354 38.1925 87.0687 38.6757C86.894 38.9102 86.6741 39.1073 86.422 39.2554C86.1699 39.4036 85.8907 39.4997 85.6008 39.5382C85.3109 39.5767 85.0163 39.5567 84.7343 39.4794C84.4522 39.4022 84.1886 39.2692 83.9588 39.0884L45.7594 9.14019C45.5428 8.97003 45.2754 8.87754 45 8.87754C44.7246 8.87754 44.4572 8.97003 44.2406 9.14019L6.04125 39.0884ZM12.612 37.0634L45 11.6714L77.3873 37.0648V81.2105H12.612V37.0634ZM2.61071 87.5386C2.88655 86.4352 3.52293 85.4555 4.4189 84.7549C5.31488 84.0544 6.41913 83.673 7.55649 83.6714H82.4435C83.5808 83.6731 84.6849 84.0544 85.5808 84.755C86.4766 85.4556 87.1129 86.4353 87.3886 87.5386H2.61071Z" fill="white"/>
<path d="M56.9797 45.83H54.658V45.6464C54.6574 45.0865 54.4321 44.5498 54.0317 44.1539C53.6313 43.758 53.0884 43.5353 52.5221 43.5346H48.1511V39.3111H54.5355C54.8367 39.3149 55.1357 39.2595 55.4152 39.1482C55.6946 39.0368 55.9489 38.8717 56.1633 38.6624C56.3777 38.4531 56.5479 38.2039 56.6641 37.929C56.7803 37.6542 56.8401 37.3593 56.8401 37.0614C56.8401 36.7635 56.7803 36.4686 56.6641 36.1938C56.5479 35.9189 56.3777 35.6696 56.1633 35.4604C55.9489 35.2511 55.6946 35.086 55.4152 34.9746C55.1357 34.8633 54.8367 34.8079 54.5355 34.8117H34.7217C34.4204 34.8079 34.1214 34.8633 33.842 34.9746C33.5625 35.086 33.3082 35.2511 33.0938 35.4604C32.8794 35.6696 32.7092 35.9189 32.593 36.1938C32.4768 36.4686 32.417 36.7635 32.417 37.0614C32.417 37.3593 32.4768 37.6542 32.593 37.929C32.7092 38.2039 32.8794 38.4531 33.0938 38.6624C33.3082 38.8717 33.5625 39.0368 33.842 39.1482C34.1214 39.2595 34.4204 39.3149 34.7217 39.3111H41.106V43.5346H36.7339C36.1673 43.5356 35.6242 43.7588 35.224 44.1553C34.8237 44.5518 34.599 45.0892 34.5991 45.6493V45.833H29.7701V42.3454C29.77 42.2524 29.7496 42.1605 29.7101 42.076C29.6707 41.9916 29.6132 41.9166 29.5416 41.8562L25.4054 38.3746V35.4577C25.4053 35.2873 25.3368 35.1239 25.2149 35.0034C25.093 34.8829 24.9277 34.8151 24.7553 34.815H21.8765C21.7041 34.8151 21.5388 34.8829 21.4169 35.0034C21.2951 35.1239 21.2265 35.2873 21.2264 35.4577V64.836C21.2264 65.0065 21.2949 65.17 21.4168 65.2905C21.5387 65.411 21.7041 65.4788 21.8765 65.4788H24.7553C24.9277 65.4788 25.0931 65.411 25.215 65.2905C25.3369 65.17 25.4054 65.0065 25.4054 64.836V61.9207L29.5416 58.4375C29.6131 58.3774 29.6705 58.3026 29.7099 58.2184C29.7494 58.1342 29.7699 58.0426 29.7701 57.9498V54.4608H34.5991V54.6444C34.5997 55.2043 34.8249 55.7411 35.2253 56.137C35.6258 56.5329 36.1687 56.7556 36.735 56.7562H52.5232C53.0894 56.7553 53.632 56.5325 54.0322 56.1366C54.4324 55.7408 54.6575 55.2041 54.658 54.6444V54.4608H56.9797C57.7922 54.4617 58.5712 54.7812 59.1457 55.3492C59.7202 55.9172 60.0434 56.6874 60.0442 57.4907V61.9258C60.0443 62.0963 60.1129 62.2597 60.2348 62.3802C60.3566 62.5007 60.5219 62.5684 60.6943 62.5685H68.1236C68.2959 62.5684 68.4612 62.5007 68.5831 62.3802C68.705 62.2597 68.7735 62.0963 68.7736 61.9258V57.4922C68.7705 54.4004 67.5269 51.4361 65.3159 49.2498C63.1048 47.0634 60.1068 45.8335 56.9797 45.83ZM33.7447 37.0645C33.7451 36.8086 33.8482 36.5634 34.0314 36.3826C34.2146 36.2018 34.4629 36.1003 34.7217 36.1004H54.5355C54.6651 36.0979 54.794 36.121 54.9146 36.1684C55.0351 36.2157 55.1449 36.2863 55.2375 36.3761C55.3301 36.4659 55.4037 36.573 55.4539 36.6913C55.5041 36.8095 55.53 36.9365 55.53 37.0647C55.53 37.1929 55.5041 37.3199 55.4539 37.4381C55.4037 37.5563 55.3301 37.6635 55.2375 37.7533C55.1449 37.8431 55.0351 37.9137 54.9146 37.961C54.794 38.0084 54.6651 38.0315 54.5355 38.029H34.7217C34.4628 38.0291 34.2145 37.9275 34.0313 37.7467C33.8481 37.5658 33.745 37.3205 33.7447 37.0645ZM42.4046 39.3144H46.851V43.5379H42.4061L42.4046 39.3144ZM24.1053 64.1933H22.5266V36.1004H24.1053V64.1933ZM28.47 57.6516L25.4054 60.2324V40.0618L28.47 42.6425V57.6516ZM29.7701 53.1754V47.1155H34.5991V53.1754H29.7701ZM53.3579 54.6444C53.3577 54.8635 53.2696 55.0736 53.1129 55.2285C52.9562 55.3834 52.7437 55.4706 52.5221 55.4708H36.7339C36.5125 55.4703 36.3003 55.383 36.1438 55.2281C35.9874 55.0732 35.8994 54.8633 35.8992 54.6444V45.6493C35.8994 45.4302 35.9875 45.2202 36.1442 45.0652C36.3009 44.9103 36.5134 44.8232 36.735 44.823H52.5232C52.7449 44.8232 52.9573 44.9103 53.114 45.0652C53.2707 45.2202 53.3588 45.4302 53.359 45.6493V54.6444H53.3579ZM67.4735 61.2831H61.3444V57.4922C61.3435 56.3478 60.8834 55.2505 60.0651 54.4412C59.2468 53.6319 58.1371 53.1766 56.9797 53.1754H54.658V47.1155H56.9797C59.7618 47.1186 62.4292 48.2127 64.3965 50.1577C66.3637 52.1028 67.4703 54.74 67.4735 57.4907V61.2831Z" fill="white"/>
<path d="M63.874 65.2364C63.4818 65.7976 60.0442 70.7821 60.0442 72.949C60.0442 74.0935 60.5041 75.1911 61.3226 76.0004C62.1412 76.8097 63.2513 77.2644 64.4089 77.2644C65.5665 77.2644 66.6767 76.8097 67.4952 76.0004C68.3138 75.1911 68.7736 74.0935 68.7736 72.949C68.7736 70.7821 65.3361 65.7969 64.9438 65.2364C64.8809 65.1553 64.7999 65.0896 64.7071 65.0443C64.6144 64.9991 64.5123 64.9756 64.4089 64.9756C64.3055 64.9756 64.2035 64.9991 64.1107 65.0443C64.018 65.0896 63.937 65.1553 63.874 65.2364ZM64.4089 75.9797C63.5964 75.9788 62.8175 75.6593 62.2429 75.0912C61.6684 74.5232 61.3452 73.753 61.3444 72.9497C61.3444 71.7796 63.0509 68.8103 64.4089 66.7551C65.767 68.8117 67.4735 71.7796 67.4735 72.9497C67.4726 73.753 67.1494 74.5232 66.5749 75.0912C66.0004 75.6593 65.2214 75.9788 64.4089 75.9797Z" fill="white"/>
<path d="M56.9797 45.83H54.658V45.6464C54.6574 45.0865 54.4321 44.5498 54.0317 44.1539C53.6313 43.758 53.0884 43.5353 52.5221 43.5346H48.1511V39.3111H54.5355C54.8367 39.3149 55.1357 39.2595 55.4152 39.1482C55.6946 39.0368 55.9489 38.8717 56.1633 38.6624C56.3777 38.4531 56.5479 38.2039 56.6641 37.929C56.7803 37.6542 56.8401 37.3593 56.8401 37.0614C56.8401 36.7635 56.7803 36.4686 56.6641 36.1938C56.5479 35.9189 56.3777 35.6696 56.1633 35.4604C55.9489 35.2511 55.6946 35.086 55.4152 34.9746C55.1357 34.8633 54.8367 34.8079 54.5355 34.8117H34.7217C34.4204 34.8079 34.1214 34.8633 33.842 34.9746C33.5625 35.086 33.3082 35.2511 33.0938 35.4604C32.8794 35.6696 32.7092 35.9189 32.593 36.1938C32.4768 36.4686 32.417 36.7635 32.417 37.0614C32.417 37.3593 32.4768 37.6542 32.593 37.929C32.7092 38.2039 32.8794 38.4531 33.0938 38.6624C33.3082 38.8717 33.5625 39.0368 33.842 39.1482C34.1214 39.2595 34.4204 39.3149 34.7217 39.3111H41.106V43.5346H36.7339C36.1673 43.5356 35.6242 43.7588 35.224 44.1553C34.8237 44.5518 34.599 45.0892 34.5991 45.6493V45.833H29.7701V42.3454C29.77 42.2524 29.7496 42.1605 29.7101 42.076C29.6707 41.9916 29.6132 41.9166 29.5416 41.8562L25.4054 38.3746V35.4577C25.4053 35.2873 25.3368 35.1239 25.2149 35.0034C25.093 34.8829 24.9277 34.8151 24.7553 34.815H21.8765C21.7041 34.8151 21.5388 34.8829 21.4169 35.0034C21.2951 35.1239 21.2265 35.2873 21.2264 35.4577V64.836C21.2264 65.0065 21.2949 65.17 21.4168 65.2905C21.5387 65.411 21.7041 65.4788 21.8765 65.4788H24.7553C24.9277 65.4788 25.0931 65.411 25.215 65.2905C25.3369 65.17 25.4054 65.0065 25.4054 64.836V61.9207L29.5416 58.4375C29.6131 58.3774 29.6705 58.3026 29.7099 58.2184C29.7494 58.1342 29.7699 58.0426 29.7701 57.9498V54.4608H34.5991V54.6444C34.5997 55.2043 34.8249 55.7411 35.2253 56.137C35.6258 56.5329 36.1687 56.7556 36.735 56.7562H52.5232C53.0894 56.7553 53.632 56.5325 54.0322 56.1366C54.4324 55.7408 54.6575 55.2041 54.658 54.6444V54.4608H56.9797C57.7922 54.4617 58.5712 54.7812 59.1457 55.3492C59.7202 55.9172 60.0434 56.6874 60.0442 57.4907V61.9258C60.0443 62.0963 60.1129 62.2597 60.2348 62.3802C60.3566 62.5007 60.5219 62.5684 60.6943 62.5685H68.1236C68.2959 62.5684 68.4612 62.5007 68.5831 62.3802C68.705 62.2597 68.7735 62.0963 68.7736 61.9258V57.4922C68.7705 54.4004 67.5269 51.4361 65.3159 49.2498C63.1048 47.0634 60.1068 45.8335 56.9797 45.83ZM33.7447 37.0645C33.7451 36.8086 33.8482 36.5634 34.0314 36.3826C34.2146 36.2018 34.4629 36.1003 34.7217 36.1004H54.5355C54.6651 36.0979 54.794 36.121 54.9146 36.1684C55.0351 36.2157 55.1449 36.2863 55.2375 36.3761C55.3301 36.4659 55.4037 36.573 55.4539 36.6913C55.5041 36.8095 55.53 36.9365 55.53 37.0647C55.53 37.1929 55.5041 37.3199 55.4539 37.4381C55.4037 37.5563 55.3301 37.6635 55.2375 37.7533C55.1449 37.8431 55.0351 37.9137 54.9146 37.961C54.794 38.0084 54.6651 38.0315 54.5355 38.029H34.7217C34.4628 38.0291 34.2145 37.9275 34.0313 37.7467C33.8481 37.5658 33.745 37.3205 33.7447 37.0645ZM42.4046 39.3144H46.851V43.5379H42.4061L42.4046 39.3144ZM24.1053 64.1933H22.5266V36.1004H24.1053V64.1933ZM28.47 57.6516L25.4054 60.2324V40.0618L28.47 42.6425V57.6516ZM29.7701 53.1754V47.1155H34.5991V53.1754H29.7701ZM53.3579 54.6444C53.3577 54.8635 53.2696 55.0736 53.1129 55.2285C52.9562 55.3834 52.7437 55.4706 52.5221 55.4708H36.7339C36.5125 55.4703 36.3003 55.383 36.1438 55.2281C35.9874 55.0732 35.8994 54.8633 35.8992 54.6444V45.6493C35.8994 45.4302 35.9875 45.2202 36.1442 45.0652C36.3009 44.9103 36.5134 44.8232 36.735 44.823H52.5232C52.7449 44.8232 52.9573 44.9103 53.114 45.0652C53.2707 45.2202 53.3588 45.4302 53.359 45.6493V54.6444H53.3579ZM67.4735 61.2831H61.3444V57.4922C61.3435 56.3478 60.8834 55.2505 60.0651 54.4412C59.2468 53.6319 58.1371 53.1766 56.9797 53.1754H54.658V47.1155H56.9797C59.7618 47.1186 62.4292 48.2127 64.3965 50.1577C66.3637 52.1028 67.4703 54.74 67.4735 57.4907V61.2831Z" stroke="white"/>
<path d="M63.874 65.2364C63.4818 65.7976 60.0442 70.7821 60.0442 72.949C60.0442 74.0935 60.5041 75.1911 61.3226 76.0004C62.1412 76.8097 63.2513 77.2644 64.4089 77.2644C65.5665 77.2644 66.6767 76.8097 67.4952 76.0004C68.3138 75.1911 68.7736 74.0935 68.7736 72.949C68.7736 70.7821 65.3361 65.7969 64.9438 65.2364C64.8809 65.1553 64.7999 65.0896 64.7071 65.0443C64.6144 64.9991 64.5123 64.9756 64.4089 64.9756C64.3055 64.9756 64.2035 64.9991 64.1107 65.0443C64.018 65.0896 63.937 65.1553 63.874 65.2364ZM64.4089 75.9797C63.5964 75.9788 62.8175 75.6593 62.2429 75.0912C61.6684 74.5232 61.3452 73.753 61.3444 72.9497C61.3444 71.7796 63.0509 68.8103 64.4089 66.7551C65.767 68.8117 67.4735 71.7796 67.4735 72.9497C67.4726 73.753 67.1494 74.5232 66.5749 75.0912C66.0004 75.6593 65.2214 75.9788 64.4089 75.9797Z" stroke="white"/>
</g>
<defs>
<clipPath id="clip0">
<rect width="90" height="90" fill="white"/>
</clipPath>
</defs>
</svg>
