<svg width="20" height="20" viewBox="0 0 20 20" fill="none" xmlns="http://www.w3.org/2000/svg">
<path d="M14.5862 0H5.41381C2.42858 0 0 2.42858 0 5.41381V14.5863C0 17.5714 2.42858 20 5.41381 20H14.5863C17.5714 20 20 17.5714 20 14.5863V5.41381C20 2.42858 17.5714 0 14.5862 0ZM9.99998 15.4686C6.98455 15.4686 4.53139 13.0154 4.53139 9.99998C4.53139 6.98455 6.98455 4.53139 9.99998 4.53139C13.0154 4.53139 15.4686 6.98455 15.4686 9.99998C15.4686 13.0154 13.0154 15.4686 9.99998 15.4686ZM15.5993 5.82106C14.7082 5.82106 13.9834 5.09627 13.9834 4.20516C13.9834 3.31405 14.7082 2.58911 15.5993 2.58911C16.4904 2.58911 17.2154 3.31405 17.2154 4.20516C17.2154 5.09627 16.4904 5.82106 15.5993 5.82106Z" fill="#D4AF37"/>
<path d="M9.99998 5.7039C7.63121 5.7039 5.70387 7.63108 5.70387 10C5.70387 12.3688 7.63121 14.2961 9.99998 14.2961C12.3689 14.2961 14.2961 12.3688 14.2961 10C14.2961 7.63108 12.3689 5.7039 9.99998 5.7039Z" fill="#D4AF37"/>
<path d="M15.5993 3.76173C15.3549 3.76173 15.1559 3.9607 15.1559 4.20515C15.1559 4.44959 15.3549 4.64857 15.5993 4.64857C15.8439 4.64857 16.0429 4.44975 16.0429 4.20515C16.0429 3.96055 15.8439 3.76173 15.5993 3.76173Z" fill="#D4AF37"/>
</svg>
